SplineFontDB: 3.0
FontName: Oxanium-ExtraLight
FullName: Oxanium ExtraLight
FamilyName: Oxanium
Weight: ExtraLight
Copyright: Copyright 2019 The Oxanium Project Authors (https://github.com/sevmeyer/oxanium)
Version: 0.000
ItalicAngle: 0
UnderlinePosition: -75
UnderlineWidth: 50
Ascent: 800
Descent: 200
InvalidEm: 0
LayerCount: 2
Layer: 0 1 "Back" 1
Layer: 1 1 "Fore" 0
StyleMap: 0x0040
FSType: 0
OS2Version: 4
OS2_WeightWidthSlopeOnly: 0
OS2_UseTypoMetrics: 1
CreationTime: 1546300800
ModificationTime: 1551956175
PfmFamily: 33
TTFWeight: 200
TTFWidth: 5
LineGap: 250
VLineGap: 0
OS2TypoAscent: 790
OS2TypoAOffset: 0
OS2TypoDescent: -210
OS2TypoDOffset: 0
OS2TypoLinegap: 250
OS2WinAscent: 1000
OS2WinAOffset: 0
OS2WinDescent: 250
OS2WinDOffset: 0
HheadAscent: 790
HheadAOffset: 0
HheadDescent: -210
HheadDOffset: 0
OS2SubXSize: 620
OS2SubYSize: 600
OS2SubXOff: 0
OS2SubYOff: 124
OS2SupXSize: 620
OS2SupYSize: 600
OS2SupXOff: 0
OS2SupYOff: 400
OS2StrikeYSize: 50
OS2StrikeYPos: 250
OS2CapHeight: 690
OS2XHeight: 515
OS2Vendor: '    '
DEI: 91125
LangName: 1033 "" "" "" "" "" "" "" "" "" "Severin Meyer" "" "" "https://sev.dev" "This Font Software is licensed under the SIL Open Font License, Version 1.1. This license is available with a FAQ at: http://scripts.sil.org/OFL" "http://scripts.sil.org/OFL" "" "Oxanium" "ExtraLight"
Encoding: Custom
UnicodeInterp: none
NameList: AGL For New Fonts
DisplaySize: -48
AntiAlias: 1
FitToEm: 0
WinInfo: 0 32 12
BeginPrivate: 2
BlueValues 41 [-10 0 515 525 690 700 740 750 1000 1010]
OtherBlues 11 [-210 -200]
EndPrivate
BeginChars: 375 375

StartChar: exclam
Encoding: 3 33 3
Width: 249
Flags: W
LayerCount: 2
Fore
SplineSet
92 0 m 1,0,-1
 92 86 l 1,1,-1
 158 86 l 1,2,-1
 158 0 l 1,3,-1
 92 0 l 1,0,-1
101 203 m 1,4,-1
 101 690 l 1,5,-1
 149 690 l 1,6,-1
 149 203 l 1,7,-1
 101 203 l 1,4,-1
EndSplineSet
EndChar

StartChar: numbersign
Encoding: 5 35 5
Width: 665
Flags: W
LayerCount: 2
Fore
SplineSet
50 204 m 1,0,-1
 50 246 l 1,1,-1
 197 246 l 1,2,-1
 197 444 l 1,3,-1
 50 444 l 1,4,-1
 50 486 l 1,5,-1
 197 486 l 1,6,-1
 197 690 l 1,7,-1
 241 690 l 1,8,-1
 241 486 l 1,9,-1
 425 486 l 1,10,-1
 425 690 l 1,11,-1
 469 690 l 1,12,-1
 469 486 l 1,13,-1
 615 486 l 1,14,-1
 615 444 l 1,15,-1
 469 444 l 1,16,-1
 469 246 l 1,17,-1
 615 246 l 1,18,-1
 615 204 l 1,19,-1
 469 204 l 1,20,-1
 469 0 l 1,21,-1
 425 0 l 1,22,-1
 425 204 l 1,23,-1
 241 204 l 1,24,-1
 241 0 l 1,25,-1
 197 0 l 1,26,-1
 197 204 l 1,27,-1
 50 204 l 1,0,-1
241 246 m 1,28,-1
 425 246 l 1,29,-1
 425 444 l 1,30,-1
 241 444 l 1,31,-1
 241 246 l 1,28,-1
EndSplineSet
EndChar

StartChar: dollar
Encoding: 6 36 6
Width: 578
Flags: W
LayerCount: 2
Fore
SplineSet
76 25 m 1,0,-1
 76 44 l 1,1,-1
 363 44 l 2,2,3
 454 44 454 44 454 134 c 2,4,-1
 454 207 l 2,5,6
 454 281 454 281 387 294 c 2,7,-1
 180 336 l 2,8,9
 76 356 76 356 76 476 c 2,10,-1
 76 516 l 2,11,12
 76 660 76 660 220 660 c 2,13,-1
 269 660 l 1,14,-1
 269 780 l 1,15,-1
 309 780 l 1,16,-1
 309 660 l 1,17,-1
 450 660 l 1,18,-1
 482 635 l 1,19,-1
 482 616 l 1,20,-1
 215 616 l 2,21,22
 124 616 124 616 124 526 c 2,23,-1
 124 467 l 2,24,25
 124 392 124 392 191 379 c 2,26,-1
 398 338 l 2,27,28
 502 317 502 317 502 198 c 2,29,-1
 502 144 l 2,30,31
 502 0 502 0 358 0 c 2,32,-1
 309 0 l 1,33,-1
 309 -120 l 1,34,-1
 269 -120 l 1,35,-1
 269 0 l 1,36,-1
 108 0 l 1,37,-1
 76 25 l 1,0,-1
EndSplineSet
EndChar

StartChar: ampersand
Encoding: 8 38 8
Width: 650
Flags: W
LayerCount: 2
Fore
SplineSet
75 143 m 2,0,-1
 75 261 l 2,1,2
 75 313 75 313 108 341 c 2,3,-1
 150 376 l 1,4,-1
 115 418 l 2,5,6
 95 442 95 442 95 476 c 2,7,-1
 95 547 l 2,8,9
 95 690 95 690 238 690 c 2,10,-1
 432 690 l 1,11,-1
 460 669 l 1,12,-1
 460 650 l 1,13,-1
 233 650 l 2,14,15
 140 650 140 650 140 557 c 2,16,-1
 140 481 l 2,17,18
 140 388 140 388 233 388 c 2,19,-1
 610 388 l 1,20,-1
 610 348 l 1,21,-1
 510 348 l 1,22,-1
 510 0 l 1,23,-1
 218 0 l 2,24,25
 75 0 75 0 75 143 c 2,0,-1
120 133 m 2,26,27
 120 40 120 40 213 40 c 2,28,-1
 465 40 l 1,29,-1
 465 348 l 1,30,-1
 213 348 l 2,31,32
 120 348 120 348 120 255 c 2,33,-1
 120 133 l 2,26,27
EndSplineSet
EndChar

StartChar: quotesingle
Encoding: 9 39 9
Width: 194
Flags: W
LayerCount: 2
Fore
SplineSet
75 502 m 1,0,-1
 75 740 l 1,1,-1
 119 740 l 1,2,-1
 119 502 l 1,3,-1
 75 502 l 1,0,-1
EndSplineSet
EndChar

StartChar: parenleft
Encoding: 10 40 10
Width: 288
Flags: W
LayerCount: 2
Fore
SplineSet
76 290 m 128,-1,1
 76 554 76 554 233 764 c 1,2,-1
 266 738 l 1,3,4
 121 541 121 541 121 290 c 128,-1,5
 121 39 121 39 266 -158 c 1,6,-1
 233 -184 l 1,7,0
 76 26 76 26 76 290 c 128,-1,1
EndSplineSet
EndChar

StartChar: parenright
Encoding: 11 41 11
Width: 288
Flags: W
LayerCount: 2
Fore
SplineSet
22 -158 m 1,0,1
 167 39 167 39 167 290 c 128,-1,2
 167 541 167 541 22 738 c 1,3,-1
 55 764 l 1,4,5
 212 554 212 554 212 290 c 128,-1,6
 212 26 212 26 55 -184 c 1,7,-1
 22 -158 l 1,0,1
EndSplineSet
EndChar

StartChar: asterisk
Encoding: 12 42 12
Width: 492
Flags: W
LayerCount: 2
Fore
SplineSet
41 529 m 1,0,-1
 52 560 l 1,1,-1
 227 507 l 1,2,-1
 227 690 l 1,3,-1
 265 690 l 1,4,-1
 265 507 l 1,5,-1
 439 560 l 1,6,-1
 451 529 l 1,7,-1
 278 470 l 1,8,-1
 383 321 l 1,9,-1
 355 301 l 1,10,-1
 246 445 l 1,11,-1
 137 301 l 1,12,-1
 109 321 l 1,13,-1
 214 470 l 1,14,-1
 41 529 l 1,0,-1
EndSplineSet
EndChar

StartChar: plus
Encoding: 13 43 13
Width: 578
Flags: W
LayerCount: 2
Fore
SplineSet
66 314 m 1,0,-1
 66 356 l 1,1,-1
 267 356 l 1,2,-1
 267 570 l 1,3,-1
 311 570 l 1,4,-1
 311 356 l 1,5,-1
 512 356 l 1,6,-1
 512 314 l 1,7,-1
 311 314 l 1,8,-1
 311 100 l 1,9,-1
 267 100 l 1,10,-1
 267 314 l 1,11,-1
 66 314 l 1,0,-1
EndSplineSet
EndChar

StartChar: comma
Encoding: 14 44 14
Width: 249
Flags: W
LayerCount: 2
Fore
SplineSet
38 -126 m 1,0,-1
 92 86 l 1,1,-1
 143 86 l 1,2,-1
 149 76 l 1,3,-1
 75 -134 l 1,4,-1
 38 -126 l 1,0,-1
EndSplineSet
EndChar

StartChar: hyphen
Encoding: 15 45 15
Width: 348
Flags: W
LayerCount: 2
Fore
SplineSet
40 284 m 1,0,-1
 40 326 l 1,1,-1
 308 326 l 1,2,-1
 308 284 l 1,3,-1
 40 284 l 1,0,-1
EndSplineSet
EndChar

StartChar: period
Encoding: 16 46 16
Width: 249
Flags: W
LayerCount: 2
Fore
SplineSet
92 0 m 1,0,-1
 92 86 l 1,1,-1
 158 86 l 1,2,-1
 158 0 l 1,3,-1
 92 0 l 1,0,-1
EndSplineSet
EndChar

StartChar: slash
Encoding: 17 47 17
Width: 362
Flags: W
LayerCount: 2
Fore
SplineSet
20 -30 m 1,0,-1
 302 735 l 1,1,-1
 342 720 l 1,2,-1
 61 -45 l 1,3,-1
 20 -30 l 1,0,-1
EndSplineSet
EndChar

StartChar: zero
Encoding: 18 48 18
Width: 578
Flags: W
LayerCount: 2
Fore
SplineSet
71 144 m 2,0,-1
 71 546 l 2,1,2
 71 690 71 690 215 690 c 2,3,-1
 363 690 l 2,4,5
 507 690 507 690 507 546 c 2,6,-1
 507 144 l 2,7,8
 507 0 507 0 363 0 c 2,9,-1
 215 0 l 2,10,11
 71 0 71 0 71 144 c 2,0,-1
119 134 m 2,12,13
 119 44 119 44 210 44 c 2,14,-1
 368 44 l 2,15,16
 459 44 459 44 459 134 c 2,17,-1
 459 556 l 2,18,19
 459 646 459 646 368 646 c 2,20,-1
 210 646 l 2,21,22
 119 646 119 646 119 556 c 2,23,-1
 119 134 l 2,12,13
EndSplineSet
EndChar

StartChar: one
Encoding: 19 49 19
Width: 578
Flags: W
LayerCount: 2
Fore
SplineSet
99 0 m 1,0,-1
 99 44 l 1,1,-1
 281 44 l 1,2,-1
 281 646 l 1,3,-1
 140 646 l 1,4,-1
 140 665 l 1,5,-1
 172 690 l 1,6,-1
 329 690 l 1,7,-1
 329 44 l 1,8,-1
 495 44 l 1,9,-1
 495 0 l 1,10,-1
 99 0 l 1,0,-1
EndSplineSet
EndChar

StartChar: two
Encoding: 20 50 20
Width: 578
Flags: W
LayerCount: 2
Fore
SplineSet
71 0 m 1,0,-1
 71 201 l 2,1,2
 71 320 71 320 175 341 c 2,3,-1
 392 385 l 2,4,5
 459 398 459 398 459 472 c 2,6,-1
 459 556 l 2,7,8
 459 646 459 646 368 646 c 2,9,-1
 91 646 l 1,10,-1
 91 665 l 1,11,-1
 123 690 l 1,12,-1
 363 690 l 2,13,14
 507 690 507 690 507 546 c 2,15,-1
 507 481 l 2,16,17
 507 362 507 362 403 341 c 2,18,-1
 186 297 l 2,19,20
 119 284 119 284 119 210 c 2,21,-1
 119 44 l 1,22,-1
 507 44 l 1,23,-1
 507 0 l 1,24,-1
 71 0 l 1,0,-1
EndSplineSet
EndChar

StartChar: three
Encoding: 21 51 21
Width: 578
Flags: W
LayerCount: 2
Fore
SplineSet
81 25 m 1,0,-1
 81 44 l 1,1,-1
 368 44 l 2,2,3
 459 44 459 44 459 134 c 2,4,-1
 459 254 l 2,5,6
 459 344 459 344 368 344 c 2,7,-1
 155 344 l 1,8,-1
 155 388 l 1,9,-1
 368 388 l 2,10,11
 459 388 459 388 459 479 c 2,12,-1
 459 556 l 2,13,14
 459 646 459 646 368 646 c 2,15,-1
 91 646 l 1,16,-1
 91 665 l 1,17,-1
 123 690 l 1,18,-1
 363 690 l 2,19,20
 507 690 507 690 507 546 c 2,21,-1
 507 468 l 2,22,23
 507 428 507 428 482 403 c 2,24,-1
 447 368 l 1,25,-1
 482 333 l 2,26,27
 507 308 507 308 507 268 c 2,28,-1
 507 144 l 2,29,30
 507 0 507 0 363 0 c 2,31,-1
 113 0 l 1,32,-1
 81 25 l 1,0,-1
EndSplineSet
EndChar

StartChar: four
Encoding: 22 52 22
Width: 578
Flags: W
LayerCount: 2
Fore
SplineSet
71 145 m 1,0,-1
 71 186 l 1,1,-1
 314 690 l 1,2,-1
 353 690 l 1,3,-1
 360 676 l 1,4,-1
 125 189 l 1,5,-1
 459 189 l 1,6,-1
 459 430 l 1,7,-1
 507 430 l 1,8,-1
 507 0 l 1,9,-1
 459 0 l 1,10,-1
 459 145 l 1,11,-1
 71 145 l 1,0,-1
EndSplineSet
EndChar

StartChar: five
Encoding: 23 53 23
Width: 578
Flags: W
LayerCount: 2
Fore
SplineSet
61 25 m 1,0,-1
 61 44 l 1,1,-1
 368 44 l 2,2,3
 459 44 459 44 459 134 c 2,4,-1
 459 264 l 2,5,6
 459 354 459 354 368 354 c 2,7,-1
 71 354 l 1,8,-1
 71 690 l 1,9,-1
 477 690 l 1,10,-1
 477 646 l 1,11,-1
 119 646 l 1,12,-1
 119 398 l 1,13,-1
 363 398 l 2,14,15
 507 398 507 398 507 254 c 2,16,-1
 507 144 l 2,17,18
 507 0 507 0 363 0 c 2,19,-1
 93 0 l 1,20,-1
 61 25 l 1,0,-1
EndSplineSet
EndChar

StartChar: six
Encoding: 24 54 24
Width: 578
Flags: W
LayerCount: 2
Fore
SplineSet
71 144 m 2,0,-1
 71 517 l 2,1,2
 71 690 71 690 244 690 c 2,3,-1
 435 690 l 1,4,-1
 467 665 l 1,5,-1
 467 646 l 1,6,-1
 240 646 l 2,7,8
 119 646 119 646 119 525 c 2,9,-1
 119 398 l 1,10,-1
 363 398 l 2,11,12
 507 398 507 398 507 254 c 2,13,-1
 507 144 l 2,14,15
 507 0 507 0 363 0 c 2,16,-1
 215 0 l 2,17,18
 71 0 71 0 71 144 c 2,0,-1
119 134 m 2,19,20
 119 44 119 44 210 44 c 2,21,-1
 368 44 l 2,22,23
 459 44 459 44 459 134 c 2,24,-1
 459 264 l 2,25,26
 459 354 459 354 368 354 c 2,27,-1
 119 354 l 1,28,-1
 119 134 l 2,19,20
EndSplineSet
EndChar

StartChar: seven
Encoding: 25 55 25
Width: 578
Flags: W
LayerCount: 2
Fore
SplineSet
71 646 m 1,0,-1
 71 690 l 1,1,-1
 507 690 l 1,2,-1
 507 539 l 1,3,-1
 224 0 l 1,4,-1
 182 0 l 1,5,-1
 174 14 l 1,6,-1
 459 551 l 1,7,-1
 459 646 l 1,8,-1
 71 646 l 1,0,-1
EndSplineSet
EndChar

StartChar: eight
Encoding: 26 56 26
Width: 578
Flags: W
LayerCount: 2
Fore
SplineSet
71 144 m 2,0,-1
 71 268 l 2,1,2
 71 308 71 308 96 333 c 2,3,-1
 131 368 l 1,4,-1
 96 403 l 2,5,6
 71 428 71 428 71 468 c 2,7,-1
 71 546 l 2,8,9
 71 690 71 690 215 690 c 2,10,-1
 363 690 l 2,11,12
 507 690 507 690 507 546 c 2,13,-1
 507 468 l 2,14,15
 507 428 507 428 482 403 c 2,16,-1
 447 368 l 1,17,-1
 482 333 l 2,18,19
 507 308 507 308 507 268 c 2,20,-1
 507 144 l 2,21,22
 507 0 507 0 363 0 c 2,23,-1
 215 0 l 2,24,25
 71 0 71 0 71 144 c 2,0,-1
119 134 m 2,26,27
 119 44 119 44 210 44 c 2,28,-1
 368 44 l 2,29,30
 459 44 459 44 459 134 c 2,31,-1
 459 254 l 2,32,33
 459 344 459 344 368 344 c 2,34,-1
 210 344 l 2,35,36
 119 344 119 344 119 254 c 2,37,-1
 119 134 l 2,26,27
119 479 m 2,38,39
 119 388 119 388 210 388 c 2,40,-1
 368 388 l 2,41,42
 459 388 459 388 459 479 c 2,43,-1
 459 556 l 2,44,45
 459 646 459 646 368 646 c 2,46,-1
 210 646 l 2,47,48
 119 646 119 646 119 556 c 2,49,-1
 119 479 l 2,38,39
EndSplineSet
EndChar

StartChar: nine
Encoding: 27 57 27
Width: 578
Flags: W
LayerCount: 2
Fore
SplineSet
71 436 m 2,0,-1
 71 546 l 2,1,2
 71 690 71 690 215 690 c 2,3,-1
 363 690 l 2,4,5
 507 690 507 690 507 546 c 2,6,-1
 507 173 l 2,7,8
 507 0 507 0 334 0 c 2,9,-1
 133 0 l 1,10,-1
 101 25 l 1,11,-1
 101 44 l 1,12,-1
 338 44 l 2,13,14
 459 44 459 44 459 165 c 2,15,-1
 459 292 l 1,16,-1
 215 292 l 2,17,18
 71 292 71 292 71 436 c 2,0,-1
119 427 m 2,19,20
 119 336 119 336 210 336 c 2,21,-1
 459 336 l 1,22,-1
 459 556 l 2,23,24
 459 646 459 646 368 646 c 2,25,-1
 210 646 l 2,26,27
 119 646 119 646 119 556 c 2,28,-1
 119 427 l 2,19,20
EndSplineSet
EndChar

StartChar: less
Encoding: 30 60 30
Width: 578
Flags: W
LayerCount: 2
Fore
SplineSet
64 312 m 1,0,-1
 64 358 l 1,1,-1
 490 562 l 1,2,-1
 508 525 l 1,3,-1
 103 335 l 1,4,-1
 508 145 l 1,5,-1
 490 108 l 1,6,-1
 64 312 l 1,0,-1
EndSplineSet
EndChar

StartChar: equal
Encoding: 31 61 31
Width: 578
Flags: W
LayerCount: 2
Fore
SplineSet
66 204 m 1,0,-1
 66 246 l 1,1,-1
 512 246 l 1,2,-1
 512 204 l 1,3,-1
 66 204 l 1,0,-1
66 424 m 1,4,-1
 66 466 l 1,5,-1
 512 466 l 1,6,-1
 512 424 l 1,7,-1
 66 424 l 1,4,-1
EndSplineSet
EndChar

StartChar: greater
Encoding: 32 62 32
Width: 578
Flags: W
LayerCount: 2
Fore
SplineSet
70 145 m 1,0,-1
 475 335 l 1,1,-1
 70 525 l 1,2,-1
 88 562 l 1,3,-1
 514 358 l 1,4,-1
 514 312 l 1,5,-1
 88 108 l 1,6,-1
 70 145 l 1,0,-1
EndSplineSet
EndChar

StartChar: question
Encoding: 33 63 33
Width: 486
Flags: W
LayerCount: 2
Fore
SplineSet
40 646 m 1,0,-1
 40 665 l 1,1,-1
 72 690 l 1,2,-1
 292 690 l 2,3,4
 436 690 436 690 436 546 c 2,5,-1
 436 452 l 2,6,7
 436 308 436 308 292 308 c 2,8,-1
 229 308 l 1,9,-1
 229 203 l 1,10,-1
 181 203 l 1,11,-1
 181 352 l 1,12,-1
 297 352 l 2,13,14
 388 352 388 352 388 443 c 2,15,-1
 388 556 l 2,16,17
 388 646 388 646 297 646 c 2,18,-1
 40 646 l 1,0,-1
172 0 m 1,19,-1
 172 86 l 1,20,-1
 238 86 l 1,21,-1
 238 0 l 1,22,-1
 172 0 l 1,19,-1
EndSplineSet
EndChar

StartChar: at
Encoding: 34 64 34
Width: 795
Flags: W
LayerCount: 2
Fore
SplineSet
95 2 m 2,0,-1
 95 548 l 2,1,2
 95 690 95 690 236 690 c 2,3,-1
 700 690 l 1,4,-1
 700 60 l 1,5,-1
 458 60 l 2,6,7
 315 60 315 60 315 203 c 2,8,-1
 315 347 l 2,9,10
 315 490 315 490 458 490 c 2,11,-1
 656 490 l 1,12,-1
 656 652 l 1,13,-1
 234 652 l 2,14,15
 139 652 139 652 139 557 c 2,16,-1
 139 -7 l 2,17,18
 139 -102 139 -102 234 -102 c 2,19,-1
 680 -102 l 1,20,-1
 680 -119 l 1,21,-1
 652 -140 l 1,22,-1
 236 -140 l 2,23,24
 95 -140 95 -140 95 2 c 2,0,-1
360 193 m 2,25,26
 360 100 360 100 453 100 c 2,27,-1
 655 100 l 1,28,-1
 655 450 l 1,29,-1
 453 450 l 2,30,31
 360 450 360 450 360 357 c 2,32,-1
 360 193 l 2,25,26
EndSplineSet
EndChar

StartChar: A
Encoding: 35 65 35
Width: 608
Flags: W
LayerCount: 2
Fore
SplineSet
21 13 m 1,0,-1
 260 690 l 1,1,-1
 349 690 l 1,2,-1
 587 13 l 1,3,-1
 579 0 l 1,4,-1
 540 0 l 1,5,-1
 474 194 l 1,6,-1
 134 194 l 1,7,-1
 68 0 l 1,8,-1
 30 0 l 1,9,-1
 21 13 l 1,0,-1
151 238 m 1,10,-1
 458 238 l 1,11,-1
 319 646 l 1,12,-1
 290 646 l 1,13,-1
 151 238 l 1,10,-1
EndSplineSet
EndChar

StartChar: B
Encoding: 36 66 36
Width: 639
Flags: W
LayerCount: 2
Fore
SplineSet
95 0 m 1,0,-1
 95 690 l 1,1,-1
 406 690 l 2,2,3
 550 690 550 690 550 546 c 2,4,-1
 550 472 l 2,5,6
 550 438 550 438 530 414 c 2,7,-1
 495 372 l 1,8,-1
 537 337 l 2,9,10
 570 310 570 310 570 257 c 2,11,-1
 570 144 l 2,12,13
 570 0 570 0 426 0 c 2,14,-1
 95 0 l 1,0,-1
143 44 m 1,15,-1
 432 44 l 2,16,17
 522 44 522 44 522 134 c 2,18,-1
 522 254 l 2,19,20
 522 344 522 344 432 344 c 2,21,-1
 143 344 l 1,22,-1
 143 44 l 1,15,-1
143 388 m 1,23,-1
 412 388 l 2,24,25
 502 388 502 388 502 479 c 2,26,-1
 502 556 l 2,27,28
 502 646 502 646 412 646 c 2,29,-1
 143 646 l 1,30,-1
 143 388 l 1,23,-1
EndSplineSet
EndChar

StartChar: C
Encoding: 37 67 37
Width: 602
Flags: W
LayerCount: 2
Fore
SplineSet
85 144 m 2,0,-1
 85 546 l 2,1,2
 85 690 85 690 229 690 c 2,3,-1
 520 690 l 1,4,-1
 552 665 l 1,5,-1
 552 646 l 1,6,-1
 224 646 l 2,7,8
 133 646 133 646 133 556 c 2,9,-1
 133 134 l 2,10,11
 133 44 133 44 224 44 c 2,12,-1
 552 44 l 1,13,-1
 552 25 l 1,14,-1
 520 0 l 1,15,-1
 229 0 l 2,16,17
 85 0 85 0 85 144 c 2,0,-1
EndSplineSet
EndChar

StartChar: D
Encoding: 38 68 38
Width: 675
Flags: W
LayerCount: 2
Fore
SplineSet
95 0 m 1,0,-1
 95 690 l 1,1,-1
 370 690 l 2,2,3
 600 690 600 690 600 459 c 2,4,-1
 600 231 l 2,5,6
 600 0 600 0 370 0 c 2,7,-1
 95 0 l 1,0,-1
143 44 m 1,8,-1
 373 44 l 2,9,10
 552 44 552 44 552 223 c 2,11,-1
 552 467 l 2,12,13
 552 646 552 646 373 646 c 2,14,-1
 143 646 l 1,15,-1
 143 44 l 1,8,-1
EndSplineSet
EndChar

StartChar: E
Encoding: 39 69 39
Width: 582
Flags: W
LayerCount: 2
Fore
SplineSet
95 0 m 1,0,-1
 95 690 l 1,1,-1
 532 690 l 1,2,-1
 532 646 l 1,3,-1
 143 646 l 1,4,-1
 143 388 l 1,5,-1
 502 388 l 1,6,-1
 502 344 l 1,7,-1
 143 344 l 1,8,-1
 143 44 l 1,9,-1
 532 44 l 1,10,-1
 532 0 l 1,11,-1
 95 0 l 1,0,-1
EndSplineSet
EndChar

StartChar: F
Encoding: 40 70 40
Width: 562
Flags: W
LayerCount: 2
Fore
SplineSet
95 0 m 1,0,-1
 95 690 l 1,1,-1
 532 690 l 1,2,-1
 532 646 l 1,3,-1
 143 646 l 1,4,-1
 143 358 l 1,5,-1
 502 358 l 1,6,-1
 502 314 l 1,7,-1
 143 314 l 1,8,-1
 143 0 l 1,9,-1
 95 0 l 1,0,-1
EndSplineSet
EndChar

StartChar: G
Encoding: 41 71 41
Width: 665
Flags: W
LayerCount: 2
Fore
SplineSet
85 144 m 2,0,-1
 85 546 l 2,1,2
 85 690 85 690 229 690 c 2,3,-1
 539 690 l 1,4,-1
 570 665 l 1,5,-1
 570 646 l 1,6,-1
 224 646 l 2,7,8
 133 646 133 646 133 556 c 2,9,-1
 133 134 l 2,10,11
 133 44 133 44 224 44 c 2,12,-1
 542 44 l 1,13,-1
 542 344 l 1,14,-1
 350 344 l 1,15,-1
 350 388 l 1,16,-1
 590 388 l 1,17,-1
 590 0 l 1,18,-1
 229 0 l 2,19,20
 85 0 85 0 85 144 c 2,0,-1
EndSplineSet
EndChar

StartChar: H
Encoding: 42 72 42
Width: 695
Flags: W
LayerCount: 2
Fore
SplineSet
95 0 m 1,0,-1
 95 690 l 1,1,-1
 143 690 l 1,2,-1
 143 388 l 1,3,-1
 552 388 l 1,4,-1
 552 690 l 1,5,-1
 600 690 l 1,6,-1
 600 0 l 1,7,-1
 552 0 l 1,8,-1
 552 344 l 1,9,-1
 143 344 l 1,10,-1
 143 0 l 1,11,-1
 95 0 l 1,0,-1
EndSplineSet
EndChar

StartChar: I
Encoding: 43 73 43
Width: 238
Flags: W
LayerCount: 2
Fore
SplineSet
95 0 m 1,0,-1
 95 690 l 1,1,-1
 143 690 l 1,2,-1
 143 0 l 1,3,-1
 95 0 l 1,0,-1
EndSplineSet
EndChar

StartChar: J
Encoding: 44 74 44
Width: 599
Flags: W
LayerCount: 2
Fore
SplineSet
65 144 m 2,0,-1
 65 236 l 1,1,-1
 113 236 l 1,2,-1
 113 134 l 2,3,4
 113 44 113 44 204 44 c 2,5,-1
 372 44 l 2,6,7
 462 44 462 44 462 134 c 2,8,-1
 462 646 l 1,9,-1
 214 646 l 1,10,-1
 214 690 l 1,11,-1
 510 690 l 1,12,-1
 510 144 l 2,13,14
 510 0 510 0 366 0 c 2,15,-1
 209 0 l 2,16,17
 65 0 65 0 65 144 c 2,0,-1
EndSplineSet
EndChar

StartChar: K
Encoding: 45 75 45
Width: 605
Flags: W
LayerCount: 2
Fore
SplineSet
95 0 m 1,0,-1
 95 690 l 1,1,-1
 143 690 l 1,2,-1
 143 287 l 1,3,-1
 504 690 l 1,4,-1
 546 690 l 1,5,-1
 552 677 l 1,6,-1
 308 406 l 1,7,-1
 574 13 l 1,8,-1
 568 0 l 1,9,-1
 524 0 l 1,10,-1
 276 371 l 1,11,-1
 143 223 l 1,12,-1
 143 0 l 1,13,-1
 95 0 l 1,0,-1
EndSplineSet
EndChar

StartChar: L
Encoding: 46 76 46
Width: 526
Flags: W
LayerCount: 2
Fore
SplineSet
95 0 m 1,0,-1
 95 690 l 1,1,-1
 143 690 l 1,2,-1
 143 44 l 1,3,-1
 502 44 l 1,4,-1
 502 0 l 1,5,-1
 95 0 l 1,0,-1
EndSplineSet
EndChar

StartChar: M
Encoding: 47 77 47
Width: 843
Flags: W
LayerCount: 2
Fore
SplineSet
95 0 m 1,0,-1
 95 690 l 1,1,-1
 169 690 l 1,2,-1
 422 154 l 1,3,-1
 674 690 l 1,4,-1
 748 690 l 1,5,-1
 748 0 l 1,6,-1
 700 0 l 1,7,-1
 700 641 l 1,8,-1
 449 106 l 1,9,-1
 394 106 l 1,10,-1
 143 641 l 1,11,-1
 143 0 l 1,12,-1
 95 0 l 1,0,-1
EndSplineSet
EndChar

StartChar: N
Encoding: 48 78 48
Width: 709
Flags: W
LayerCount: 2
Fore
SplineSet
95 0 m 1,0,-1
 95 690 l 1,1,-1
 150 690 l 1,2,-1
 566 66 l 1,3,-1
 566 690 l 1,4,-1
 614 690 l 1,5,-1
 614 0 l 1,6,-1
 559 0 l 1,7,-1
 143 624 l 1,8,-1
 143 0 l 1,9,-1
 95 0 l 1,0,-1
EndSplineSet
EndChar

StartChar: O
Encoding: 49 79 49
Width: 695
Flags: W
LayerCount: 2
Fore
SplineSet
85 144 m 2,0,-1
 85 546 l 2,1,2
 85 690 85 690 229 690 c 2,3,-1
 466 690 l 2,4,5
 610 690 610 690 610 546 c 2,6,-1
 610 144 l 2,7,8
 610 0 610 0 466 0 c 2,9,-1
 229 0 l 2,10,11
 85 0 85 0 85 144 c 2,0,-1
133 134 m 2,12,13
 133 44 133 44 224 44 c 2,14,-1
 472 44 l 2,15,16
 562 44 562 44 562 134 c 2,17,-1
 562 556 l 2,18,19
 562 646 562 646 472 646 c 2,20,-1
 224 646 l 2,21,22
 133 646 133 646 133 556 c 2,23,-1
 133 134 l 2,12,13
EndSplineSet
EndChar

StartChar: P
Encoding: 50 80 50
Width: 625
Flags: W
LayerCount: 2
Fore
SplineSet
95 0 m 1,0,-1
 95 690 l 1,1,-1
 416 690 l 2,2,3
 560 690 560 690 560 546 c 2,4,-1
 560 418 l 2,5,6
 560 274 560 274 416 274 c 2,7,-1
 143 274 l 1,8,-1
 143 0 l 1,9,-1
 95 0 l 1,0,-1
143 318 m 1,10,-1
 422 318 l 2,11,12
 512 318 512 318 512 409 c 2,13,-1
 512 556 l 2,14,15
 512 646 512 646 422 646 c 2,16,-1
 143 646 l 1,17,-1
 143 318 l 1,10,-1
EndSplineSet
EndChar

StartChar: Q
Encoding: 51 81 51
Width: 695
Flags: W
LayerCount: 2
Fore
SplineSet
85 144 m 2,0,-1
 85 546 l 2,1,2
 85 690 85 690 229 690 c 2,3,-1
 466 690 l 2,4,5
 610 690 610 690 610 546 c 2,6,-1
 610 143 l 2,7,8
 610 2 610 2 469 0 c 1,9,-1
 538 -136 l 1,10,-1
 531 -150 l 1,11,-1
 492 -150 l 1,12,-1
 416 0 l 1,13,-1
 229 0 l 2,14,15
 85 0 85 0 85 144 c 2,0,-1
133 134 m 2,16,17
 133 44 133 44 224 44 c 2,18,-1
 472 44 l 2,19,20
 562 44 562 44 562 134 c 2,21,-1
 562 556 l 2,22,23
 562 646 562 646 472 646 c 2,24,-1
 224 646 l 2,25,26
 133 646 133 646 133 556 c 2,27,-1
 133 134 l 2,16,17
EndSplineSet
EndChar

StartChar: R
Encoding: 52 82 52
Width: 635
Flags: W
LayerCount: 2
Fore
SplineSet
95 0 m 1,0,-1
 95 690 l 1,1,-1
 416 690 l 2,2,3
 560 690 560 690 560 546 c 2,4,-1
 560 438 l 2,5,6
 560 305 560 305 438 295 c 1,7,-1
 580 14 l 1,8,-1
 573 0 l 1,9,-1
 534 0 l 1,10,-1
 385 294 l 1,11,-1
 143 294 l 1,12,-1
 143 0 l 1,13,-1
 95 0 l 1,0,-1
143 338 m 1,14,-1
 422 338 l 2,15,16
 512 338 512 338 512 429 c 2,17,-1
 512 556 l 2,18,19
 512 646 512 646 422 646 c 2,20,-1
 143 646 l 1,21,-1
 143 338 l 1,14,-1
EndSplineSet
EndChar

StartChar: S
Encoding: 53 83 53
Width: 575
Flags: W
LayerCount: 2
Fore
SplineSet
65 25 m 1,0,-1
 65 44 l 1,1,-1
 372 44 l 2,2,3
 462 44 462 44 462 134 c 2,4,-1
 462 221 l 2,5,6
 462 295 462 295 396 308 c 2,7,-1
 169 354 l 2,8,9
 65 375 65 375 65 494 c 2,10,-1
 65 546 l 2,11,12
 65 690 65 690 209 690 c 2,13,-1
 459 690 l 1,14,-1
 490 665 l 1,15,-1
 490 646 l 1,16,-1
 204 646 l 2,17,18
 113 646 113 646 113 556 c 2,19,-1
 113 486 l 2,20,21
 113 411 113 411 179 398 c 2,22,-1
 406 353 l 2,23,24
 510 332 510 332 510 213 c 2,25,-1
 510 144 l 2,26,27
 510 0 510 0 366 0 c 2,28,-1
 97 0 l 1,29,-1
 65 25 l 1,0,-1
EndSplineSet
EndChar

StartChar: T
Encoding: 54 84 54
Width: 580
Flags: W
LayerCount: 2
Fore
SplineSet
24 646 m 1,0,-1
 24 690 l 1,1,-1
 556 690 l 1,2,-1
 556 646 l 1,3,-1
 314 646 l 1,4,-1
 314 0 l 1,5,-1
 266 0 l 1,6,-1
 266 646 l 1,7,-1
 24 646 l 1,0,-1
EndSplineSet
EndChar

StartChar: U
Encoding: 55 85 55
Width: 683
Flags: W
LayerCount: 2
Fore
SplineSet
89 144 m 2,0,-1
 89 690 l 1,1,-1
 137 690 l 1,2,-1
 137 134 l 2,3,4
 137 44 137 44 228 44 c 2,5,-1
 456 44 l 2,6,7
 546 44 546 44 546 134 c 2,8,-1
 546 690 l 1,9,-1
 594 690 l 1,10,-1
 594 144 l 2,11,12
 594 0 594 0 450 0 c 2,13,-1
 233 0 l 2,14,15
 89 0 89 0 89 144 c 2,0,-1
EndSplineSet
EndChar

StartChar: V
Encoding: 56 86 56
Width: 598
Flags: W
LayerCount: 2
Fore
SplineSet
21 677 m 1,0,-1
 30 690 l 1,1,-1
 68 690 l 1,2,-1
 285 44 l 1,3,-1
 314 44 l 1,4,-1
 531 690 l 1,5,-1
 569 690 l 1,6,-1
 577 677 l 1,7,-1
 346 0 l 1,8,-1
 252 0 l 1,9,-1
 21 677 l 1,0,-1
EndSplineSet
EndChar

StartChar: W
Encoding: 57 87 57
Width: 898
Flags: W
LayerCount: 2
Fore
SplineSet
31 677 m 1,0,-1
 40 690 l 1,1,-1
 76 690 l 1,2,-1
 240 44 l 1,3,-1
 255 44 l 1,4,-1
 425 608 l 1,5,-1
 474 608 l 1,6,-1
 643 44 l 1,7,-1
 659 44 l 1,8,-1
 822 690 l 1,9,-1
 858 690 l 1,10,-1
 867 677 l 1,11,-1
 694 0 l 1,12,-1
 609 0 l 1,13,-1
 449 547 l 1,14,-1
 289 0 l 1,15,-1
 205 0 l 1,16,-1
 31 677 l 1,0,-1
EndSplineSet
EndChar

StartChar: X
Encoding: 58 88 58
Width: 588
Flags: W
LayerCount: 2
Fore
SplineSet
31 13 m 1,0,-1
 266 355 l 1,1,-1
 44 677 l 1,2,-1
 50 690 l 1,3,-1
 91 690 l 1,4,-1
 294 390 l 1,5,-1
 497 690 l 1,6,-1
 538 690 l 1,7,-1
 544 677 l 1,8,-1
 322 355 l 1,9,-1
 557 13 l 1,10,-1
 551 0 l 1,11,-1
 510 0 l 1,12,-1
 294 321 l 1,13,-1
 78 0 l 1,14,-1
 37 0 l 1,15,-1
 31 13 l 1,0,-1
EndSplineSet
EndChar

StartChar: Y
Encoding: 59 89 59
Width: 558
Flags: W
LayerCount: 2
Fore
SplineSet
21 677 m 1,0,-1
 29 690 l 1,1,-1
 68 690 l 1,2,-1
 279 307 l 1,3,-1
 490 690 l 1,4,-1
 530 690 l 1,5,-1
 537 677 l 1,6,-1
 303 263 l 1,7,-1
 303 0 l 1,8,-1
 255 0 l 1,9,-1
 255 263 l 1,10,-1
 21 677 l 1,0,-1
EndSplineSet
EndChar

StartChar: Z
Encoding: 60 90 60
Width: 595
Flags: W
LayerCount: 2
Fore
SplineSet
55 0 m 1,0,-1
 55 40 l 1,1,-1
 473 646 l 1,2,-1
 65 646 l 1,3,-1
 65 690 l 1,4,-1
 530 690 l 1,5,-1
 530 650 l 1,6,-1
 112 44 l 1,7,-1
 540 44 l 1,8,-1
 540 0 l 1,9,-1
 55 0 l 1,0,-1
EndSplineSet
EndChar

StartChar: bracketleft
Encoding: 61 91 61
Width: 315
Flags: W
LayerCount: 2
Fore
SplineSet
95 -180 m 1,0,-1
 95 760 l 1,1,-1
 285 760 l 1,2,-1
 285 720 l 1,3,-1
 140 720 l 1,4,-1
 140 -140 l 1,5,-1
 285 -140 l 1,6,-1
 285 -180 l 1,7,-1
 95 -180 l 1,0,-1
EndSplineSet
EndChar

StartChar: backslash
Encoding: 62 92 62
Width: 362
Flags: W
LayerCount: 2
Fore
SplineSet
20 720 m 1,0,-1
 61 735 l 1,1,-1
 342 -30 l 1,2,-1
 302 -45 l 1,3,-1
 20 720 l 1,0,-1
EndSplineSet
EndChar

StartChar: bracketright
Encoding: 63 93 63
Width: 315
Flags: W
LayerCount: 2
Fore
SplineSet
30 -140 m 1,0,-1
 175 -140 l 1,1,-1
 175 720 l 1,2,-1
 30 720 l 1,3,-1
 30 760 l 1,4,-1
 220 760 l 1,5,-1
 220 -180 l 1,6,-1
 30 -180 l 1,7,-1
 30 -140 l 1,0,-1
EndSplineSet
EndChar

StartChar: asciicircum
Encoding: 64 94 64
Width: 526
Flags: W
LayerCount: 2
Fore
SplineSet
45 338 m 1,0,-1
 240 690 l 1,1,-1
 286 690 l 1,2,-1
 481 338 l 1,3,-1
 443 317 l 1,4,-1
 263 646 l 1,5,-1
 83 317 l 1,6,-1
 45 338 l 1,0,-1
EndSplineSet
EndChar

StartChar: underscore
Encoding: 65 95 65
Width: 580
Flags: W
LayerCount: 2
Fore
SplineSet
40 -159 m 1,0,-1
 540 -159 l 1,1,-1
 540 -200 l 1,2,-1
 40 -200 l 1,3,-1
 40 -159 l 1,0,-1
EndSplineSet
EndChar

StartChar: a
Encoding: 67 97 67
Width: 537
Flags: W
LayerCount: 2
Fore
SplineSet
201 0 m 2,0,1
 57 0 57 0 57 146 c 128,-1,2
 57 292 57 292 201 292 c 2,3,-1
 411 292 l 1,4,-1
 411 382 l 2,5,6
 411 475 411 475 318 475 c 2,7,-1
 103 475 l 1,8,-1
 103 494 l 1,9,-1
 131 515 l 1,10,-1
 314 515 l 2,11,12
 456 515 456 515 456 372 c 2,13,-1
 456 0 l 1,14,-1
 201 0 l 2,0,1
102 133 m 2,15,16
 102 40 102 40 195 40 c 2,17,-1
 411 40 l 1,18,-1
 411 252 l 1,19,-1
 195 252 l 2,20,21
 102 252 102 252 102 159 c 2,22,-1
 102 133 l 2,15,16
EndSplineSet
EndChar

StartChar: b
Encoding: 68 98 68
Width: 577
Flags: W
LayerCount: 2
Fore
SplineSet
85 0 m 1,0,-1
 85 740 l 1,1,-1
 130 740 l 1,2,-1
 130 515 l 1,3,-1
 358 515 l 2,4,5
 500 515 500 515 500 372 c 2,6,-1
 500 143 l 2,7,8
 500 0 500 0 358 0 c 2,9,-1
 85 0 l 1,0,-1
130 40 m 1,10,-1
 362 40 l 2,11,12
 455 40 455 40 455 133 c 2,13,-1
 455 382 l 2,14,15
 455 475 455 475 362 475 c 2,16,-1
 130 475 l 1,17,-1
 130 40 l 1,10,-1
EndSplineSet
EndChar

StartChar: c
Encoding: 69 99 69
Width: 496
Flags: W
LayerCount: 2
Fore
SplineSet
77 143 m 2,0,-1
 77 372 l 2,1,2
 77 515 77 515 220 515 c 2,3,-1
 422 515 l 1,4,-1
 450 494 l 1,5,-1
 450 475 l 1,6,-1
 215 475 l 2,7,8
 122 475 122 475 122 382 c 2,9,-1
 122 133 l 2,10,11
 122 40 122 40 215 40 c 2,12,-1
 450 40 l 1,13,-1
 450 21 l 1,14,-1
 422 0 l 1,15,-1
 220 0 l 2,16,17
 77 0 77 0 77 143 c 2,0,-1
EndSplineSet
EndChar

StartChar: d
Encoding: 70 100 70
Width: 577
Flags: W
LayerCount: 2
Fore
SplineSet
77 143 m 2,0,-1
 77 372 l 2,1,2
 77 515 77 515 220 515 c 2,3,-1
 447 515 l 1,4,-1
 447 740 l 1,5,-1
 492 740 l 1,6,-1
 492 0 l 1,7,-1
 220 0 l 2,8,9
 77 0 77 0 77 143 c 2,0,-1
122 133 m 2,10,11
 122 40 122 40 215 40 c 2,12,-1
 447 40 l 1,13,-1
 447 475 l 1,14,-1
 215 475 l 2,15,16
 122 475 122 475 122 382 c 2,17,-1
 122 133 l 2,10,11
EndSplineSet
EndChar

StartChar: e
Encoding: 71 101 71
Width: 569
Flags: W
LayerCount: 2
Fore
SplineSet
77 143 m 2,0,-1
 77 372 l 2,1,2
 77 515 77 515 220 515 c 2,3,-1
 350 515 l 2,4,5
 492 515 492 515 492 372 c 2,6,-1
 492 239 l 1,7,-1
 122 239 l 1,8,-1
 122 133 l 2,9,10
 122 40 122 40 215 40 c 2,11,-1
 472 40 l 1,12,-1
 472 21 l 1,13,-1
 444 0 l 1,14,-1
 220 0 l 2,15,16
 77 0 77 0 77 143 c 2,0,-1
122 279 m 1,17,-1
 447 279 l 1,18,-1
 447 382 l 2,19,20
 447 475 447 475 354 475 c 2,21,-1
 215 475 l 2,22,23
 122 475 122 475 122 382 c 2,24,-1
 122 279 l 1,17,-1
EndSplineSet
EndChar

StartChar: f
Encoding: 72 102 72
Width: 361
Flags: W
LayerCount: 2
Fore
SplineSet
85 0 m 1,0,-1
 85 597 l 2,1,2
 85 740 85 740 228 740 c 2,3,-1
 313 740 l 1,4,-1
 341 719 l 1,5,-1
 341 700 l 1,6,-1
 223 700 l 2,7,8
 130 700 130 700 130 607 c 2,9,-1
 130 515 l 1,10,-1
 331 515 l 1,11,-1
 331 475 l 1,12,-1
 130 475 l 1,13,-1
 130 0 l 1,14,-1
 85 0 l 1,0,-1
EndSplineSet
EndChar

StartChar: g
Encoding: 73 103 73
Width: 582
Flags: W
LayerCount: 2
Fore
SplineSet
79 143 m 2,0,-1
 79 372 l 2,1,2
 79 515 79 515 222 515 c 2,3,-1
 495 515 l 1,4,-1
 495 -57 l 2,5,6
 495 -200 495 -200 352 -200 c 2,7,-1
 144 -200 l 1,8,-1
 116 -179 l 1,9,-1
 116 -160 l 1,10,-1
 357 -160 l 2,11,12
 450 -160 450 -160 450 -67 c 2,13,-1
 450 0 l 1,14,-1
 222 0 l 2,15,16
 79 0 79 0 79 143 c 2,0,-1
124 133 m 2,17,18
 124 40 124 40 217 40 c 2,19,-1
 450 40 l 1,20,-1
 450 475 l 1,21,-1
 217 475 l 2,22,23
 124 475 124 475 124 382 c 2,24,-1
 124 133 l 2,17,18
EndSplineSet
EndChar

StartChar: h
Encoding: 74 104 74
Width: 581
Flags: W
LayerCount: 2
Fore
SplineSet
85 0 m 1,0,-1
 85 740 l 1,1,-1
 130 740 l 1,2,-1
 130 515 l 1,3,-1
 358 515 l 2,4,5
 500 515 500 515 500 372 c 2,6,-1
 500 0 l 1,7,-1
 455 0 l 1,8,-1
 455 382 l 2,9,10
 455 475 455 475 362 475 c 2,11,-1
 130 475 l 1,12,-1
 130 0 l 1,13,-1
 85 0 l 1,0,-1
EndSplineSet
EndChar

StartChar: i
Encoding: 75 105 75
Width: 215
Flags: W
LayerCount: 2
Fore
SplineSet
80 618 m 1,0,-1
 80 687 l 1,1,-1
 135 687 l 1,2,-1
 135 618 l 1,3,-1
 80 618 l 1,0,-1
85 0 m 1,4,-1
 85 515 l 1,5,-1
 130 515 l 1,6,-1
 130 0 l 1,7,-1
 85 0 l 1,4,-1
EndSplineSet
EndChar

StartChar: j
Encoding: 76 106 76
Width: 215
Flags: W
LayerCount: 2
Fore
SplineSet
-7 -168 m 1,0,1
 85 -166 85 -166 85 -74 c 2,2,-1
 85 515 l 1,3,-1
 130 515 l 1,4,-1
 130 -70 l 2,5,6
 130 -207 130 -207 -7 -207 c 1,7,-1
 -7 -168 l 1,0,1
80 618 m 1,8,-1
 80 687 l 1,9,-1
 135 687 l 1,10,-1
 135 618 l 1,11,-1
 80 618 l 1,8,-1
EndSplineSet
EndChar

StartChar: k
Encoding: 77 107 77
Width: 497
Flags: W
LayerCount: 2
Fore
SplineSet
85 0 m 1,0,-1
 85 740 l 1,1,-1
 130 740 l 1,2,-1
 130 211 l 1,3,-1
 406 515 l 1,4,-1
 449 515 l 1,5,-1
 454 505 l 1,6,-1
 266 298 l 1,7,-1
 468 10 l 1,8,-1
 463 0 l 1,9,-1
 419 0 l 1,10,-1
 236 265 l 1,11,-1
 130 151 l 1,12,-1
 130 0 l 1,13,-1
 85 0 l 1,0,-1
EndSplineSet
EndChar

StartChar: l
Encoding: 78 108 78
Width: 230
Flags: W
LayerCount: 2
Fore
SplineSet
81 112 m 2,0,-1
 81 740 l 1,1,-1
 126 740 l 1,2,-1
 126 108 l 2,3,4
 126 34 126 34 200 32 c 1,5,-1
 200 -7 l 1,6,7
 81 -7 81 -7 81 112 c 2,0,-1
EndSplineSet
EndChar

StartChar: m
Encoding: 79 109 79
Width: 891
Flags: W
LayerCount: 2
Fore
SplineSet
85 0 m 1,0,-1
 85 515 l 1,1,-1
 668 515 l 2,2,3
 810 515 810 515 810 372 c 2,4,-1
 810 0 l 1,5,-1
 765 0 l 1,6,-1
 765 382 l 2,7,8
 765 475 765 475 672 475 c 2,9,-1
 470 475 l 1,10,-1
 470 0 l 1,11,-1
 425 0 l 1,12,-1
 425 475 l 1,13,-1
 130 475 l 1,14,-1
 130 0 l 1,15,-1
 85 0 l 1,0,-1
EndSplineSet
EndChar

StartChar: n
Encoding: 80 110 80
Width: 581
Flags: W
LayerCount: 2
Fore
SplineSet
85 0 m 1,0,-1
 85 515 l 1,1,-1
 358 515 l 2,2,3
 500 515 500 515 500 372 c 2,4,-1
 500 0 l 1,5,-1
 455 0 l 1,6,-1
 455 382 l 2,7,8
 455 475 455 475 362 475 c 2,9,-1
 130 475 l 1,10,-1
 130 0 l 1,11,-1
 85 0 l 1,0,-1
EndSplineSet
EndChar

StartChar: o
Encoding: 81 111 81
Width: 579
Flags: W
LayerCount: 2
Fore
SplineSet
77 143 m 2,0,-1
 77 372 l 2,1,2
 77 515 77 515 220 515 c 2,3,-1
 360 515 l 2,4,5
 502 515 502 515 502 372 c 2,6,-1
 502 143 l 2,7,8
 502 0 502 0 360 0 c 2,9,-1
 220 0 l 2,10,11
 77 0 77 0 77 143 c 2,0,-1
122 133 m 2,12,13
 122 40 122 40 215 40 c 2,14,-1
 364 40 l 2,15,16
 457 40 457 40 457 133 c 2,17,-1
 457 382 l 2,18,19
 457 475 457 475 364 475 c 2,20,-1
 215 475 l 2,21,22
 122 475 122 475 122 382 c 2,23,-1
 122 133 l 2,12,13
EndSplineSet
EndChar

StartChar: p
Encoding: 82 112 82
Width: 577
Flags: W
LayerCount: 2
Fore
SplineSet
85 -200 m 1,0,-1
 85 515 l 1,1,-1
 358 515 l 2,2,3
 500 515 500 515 500 372 c 2,4,-1
 500 143 l 2,5,6
 500 0 500 0 358 0 c 2,7,-1
 130 0 l 1,8,-1
 130 -200 l 1,9,-1
 85 -200 l 1,0,-1
130 40 m 1,10,-1
 362 40 l 2,11,12
 455 40 455 40 455 133 c 2,13,-1
 455 382 l 2,14,15
 455 475 455 475 362 475 c 2,16,-1
 130 475 l 1,17,-1
 130 40 l 1,10,-1
EndSplineSet
EndChar

StartChar: q
Encoding: 83 113 83
Width: 577
Flags: W
LayerCount: 2
Fore
SplineSet
77 143 m 2,0,-1
 77 372 l 2,1,2
 77 515 77 515 220 515 c 2,3,-1
 492 515 l 1,4,-1
 492 -200 l 1,5,-1
 447 -200 l 1,6,-1
 447 0 l 1,7,-1
 220 0 l 2,8,9
 77 0 77 0 77 143 c 2,0,-1
122 133 m 2,10,11
 122 40 122 40 215 40 c 2,12,-1
 447 40 l 1,13,-1
 447 475 l 1,14,-1
 215 475 l 2,15,16
 122 475 122 475 122 382 c 2,17,-1
 122 133 l 2,10,11
EndSplineSet
EndChar

StartChar: r
Encoding: 84 114 84
Width: 353
Flags: W
LayerCount: 2
Fore
SplineSet
81 0 m 1,0,-1
 81 460 l 1,1,2
 115 515 115 515 204 515 c 2,3,-1
 299 515 l 1,4,-1
 327 494 l 1,5,-1
 327 475 l 1,6,-1
 199 475 l 2,7,8
 149 475 149 475 126 448 c 1,9,-1
 126 0 l 1,10,-1
 81 0 l 1,0,-1
EndSplineSet
EndChar

StartChar: s
Encoding: 85 115 85
Width: 495
Flags: W
LayerCount: 2
Fore
SplineSet
63 21 m 1,0,-1
 63 40 l 1,1,-1
 295 40 l 2,2,3
 386 40 386 40 386 129 c 256,4,5
 386 219 386 219 314 231 c 2,6,-1
 188 252 l 2,7,8
 63 273 63 273 63 382 c 256,9,10
 63 515 63 515 207 515 c 2,11,-1
 380 515 l 1,12,-1
 408 494 l 1,13,-1
 408 475 l 1,14,-1
 200 475 l 2,15,16
 108 475 108 475 108 386 c 256,17,18
 108 309 108 309 184 296 c 2,19,-1
 310 275 l 2,20,21
 432 255 432 255 432 134 c 256,22,23
 432 0 432 0 287 0 c 2,24,-1
 91 0 l 1,25,-1
 63 21 l 1,0,-1
EndSplineSet
EndChar

StartChar: t
Encoding: 86 116 86
Width: 373
Flags: W
LayerCount: 2
Fore
SplineSet
81 143 m 2,0,-1
 81 690 l 1,1,-1
 126 690 l 1,2,-1
 126 515 l 1,3,-1
 327 515 l 1,4,-1
 327 475 l 1,5,-1
 126 475 l 1,6,-1
 126 133 l 2,7,8
 126 40 126 40 219 40 c 2,9,-1
 337 40 l 1,10,-1
 337 21 l 1,11,-1
 309 0 l 1,12,-1
 224 0 l 2,13,14
 81 0 81 0 81 143 c 2,0,-1
EndSplineSet
EndChar

StartChar: u
Encoding: 87 117 87
Width: 581
Flags: W
LayerCount: 2
Fore
SplineSet
81 143 m 2,0,-1
 81 515 l 1,1,-1
 126 515 l 1,2,-1
 126 133 l 2,3,4
 126 40 126 40 219 40 c 2,5,-1
 451 40 l 1,6,-1
 451 515 l 1,7,-1
 496 515 l 1,8,-1
 496 0 l 1,9,-1
 224 0 l 2,10,11
 81 0 81 0 81 143 c 2,0,-1
EndSplineSet
EndChar

StartChar: v
Encoding: 88 118 88
Width: 498
Flags: W
LayerCount: 2
Fore
SplineSet
21 505 m 1,0,-1
 27 515 l 1,1,-1
 66 515 l 1,2,-1
 236 40 l 1,3,-1
 262 40 l 1,4,-1
 432 515 l 1,5,-1
 471 515 l 1,6,-1
 477 505 l 1,7,-1
 293 0 l 1,8,-1
 206 0 l 1,9,-1
 21 505 l 1,0,-1
EndSplineSet
EndChar

StartChar: w
Encoding: 89 119 89
Width: 760
Flags: W
LayerCount: 2
Fore
SplineSet
25 505 m 1,0,-1
 32 515 l 1,1,-1
 68 515 l 1,2,-1
 190 40 l 1,3,-1
 208 40 l 1,4,-1
 353 515 l 1,5,-1
 407 515 l 1,6,-1
 552 40 l 1,7,-1
 571 40 l 1,8,-1
 693 515 l 1,9,-1
 728 515 l 1,10,-1
 735 505 l 1,11,-1
 604 0 l 1,12,-1
 522 0 l 1,13,-1
 380 468 l 1,14,-1
 238 0 l 1,15,-1
 157 0 l 1,16,-1
 25 505 l 1,0,-1
EndSplineSet
EndChar

StartChar: x
Encoding: 90 120 90
Width: 498
Flags: W
LayerCount: 2
Fore
SplineSet
31 10 m 1,0,-1
 222 264 l 1,1,-1
 39 505 l 1,2,-1
 44 515 l 1,3,-1
 86 515 l 1,4,-1
 249 295 l 1,5,-1
 412 515 l 1,6,-1
 454 515 l 1,7,-1
 459 505 l 1,8,-1
 277 264 l 1,9,-1
 467 10 l 1,10,-1
 463 0 l 1,11,-1
 420 0 l 1,12,-1
 249 233 l 1,13,-1
 78 0 l 1,14,-1
 36 0 l 1,15,-1
 31 10 l 1,0,-1
EndSplineSet
EndChar

StartChar: y
Encoding: 91 121 91
Width: 498
Flags: W
LayerCount: 2
Fore
SplineSet
21 505 m 1,0,-1
 27 515 l 1,1,-1
 66 515 l 1,2,-1
 236 40 l 1,3,-1
 262 40 l 1,4,-1
 432 515 l 1,5,-1
 471 515 l 1,6,-1
 477 505 l 1,7,-1
 219 -200 l 1,8,-1
 180 -200 l 1,9,-1
 174 -190 l 1,10,-1
 246 0 l 1,11,-1
 206 0 l 1,12,-1
 21 505 l 1,0,-1
EndSplineSet
EndChar

StartChar: z
Encoding: 92 122 92
Width: 505
Flags: W
LayerCount: 2
Fore
SplineSet
55 0 m 1,0,-1
 55 37 l 1,1,-1
 385 475 l 1,2,-1
 65 475 l 1,3,-1
 65 515 l 1,4,-1
 440 515 l 1,5,-1
 440 478 l 1,6,-1
 110 40 l 1,7,-1
 450 40 l 1,8,-1
 450 0 l 1,9,-1
 55 0 l 1,0,-1
EndSplineSet
EndChar

StartChar: braceleft
Encoding: 93 123 93
Width: 356
Flags: W
LayerCount: 2
Fore
SplineSet
50 281 m 1,0,-1
 50 305 l 1,1,-1
 146 401 l 1,2,-1
 146 617 l 2,3,4
 146 760 146 760 289 760 c 2,5,-1
 326 760 l 1,6,-1
 326 720 l 1,7,-1
 284 720 l 2,8,9
 191 720 191 720 191 627 c 2,10,-1
 191 388 l 1,11,-1
 94 293 l 1,12,-1
 191 198 l 1,13,-1
 191 -47 l 2,14,15
 191 -140 191 -140 284 -140 c 2,16,-1
 326 -140 l 1,17,-1
 326 -180 l 1,18,-1
 289 -180 l 2,19,20
 146 -180 146 -180 146 -37 c 2,21,-1
 146 185 l 1,22,-1
 50 281 l 1,0,-1
EndSplineSet
EndChar

StartChar: bar
Encoding: 94 124 94
Width: 251
Flags: W
LayerCount: 2
Fore
SplineSet
104 -200 m 1,0,-1
 104 740 l 1,1,-1
 148 740 l 1,2,-1
 148 -200 l 1,3,-1
 104 -200 l 1,0,-1
EndSplineSet
EndChar

StartChar: braceright
Encoding: 95 125 95
Width: 356
Flags: W
LayerCount: 2
Fore
SplineSet
30 -140 m 1,0,-1
 72 -140 l 2,1,2
 165 -140 165 -140 165 -47 c 2,3,-1
 165 198 l 1,4,-1
 262 293 l 1,5,-1
 165 388 l 1,6,-1
 165 627 l 2,7,8
 165 720 165 720 72 720 c 2,9,-1
 30 720 l 1,10,-1
 30 760 l 1,11,-1
 67 760 l 2,12,13
 210 760 210 760 210 617 c 2,14,-1
 210 401 l 1,15,-1
 306 305 l 1,16,-1
 306 281 l 1,17,-1
 210 185 l 1,18,-1
 210 -37 l 2,19,20
 210 -180 210 -180 67 -180 c 2,21,-1
 30 -180 l 1,22,-1
 30 -140 l 1,0,-1
EndSplineSet
EndChar

StartChar: asciitilde
Encoding: 96 126 96
Width: 578
Flags: W
LayerCount: 2
Fore
SplineSet
59 295 m 1,0,-1
 146 381 l 2,1,2
 174 410 174 410 209 410 c 128,-1,3
 244 410 244 410 272 381 c 2,4,-1
 331 323 l 2,5,6
 351 303 351 303 369 303 c 128,-1,7
 387 303 387 303 407 323 c 2,8,-1
 489 405 l 1,9,-1
 519 375 l 1,10,-1
 432 289 l 2,11,12
 404 260 404 260 369 260 c 128,-1,13
 334 260 334 260 306 289 c 2,14,-1
 247 347 l 2,15,16
 227 367 227 367 209 367 c 128,-1,17
 191 367 191 367 171 347 c 2,18,-1
 89 265 l 1,19,-1
 59 295 l 1,0,-1
EndSplineSet
EndChar

StartChar: exclamdown
Encoding: 98 161 98
Width: 249
Flags: W
LayerCount: 2
Fore
SplineSet
92 430 m 1,0,-1
 92 515 l 1,1,-1
 158 515 l 1,2,-1
 158 430 l 1,3,-1
 92 430 l 1,0,-1
101 -175 m 1,4,-1
 101 312 l 1,5,-1
 149 312 l 1,6,-1
 149 -175 l 1,7,-1
 101 -175 l 1,4,-1
EndSplineSet
EndChar

StartChar: cent
Encoding: 99 162 99
Width: 578
Flags: W
LayerCount: 2
Fore
SplineSet
101 143 m 2,0,-1
 101 372 l 2,1,2
 101 515 101 515 244 515 c 2,3,-1
 297 515 l 1,4,-1
 297 625 l 1,5,-1
 335 625 l 1,6,-1
 335 515 l 1,7,-1
 446 515 l 1,8,-1
 474 494 l 1,9,-1
 474 475 l 1,10,-1
 239 475 l 2,11,12
 146 475 146 475 146 382 c 2,13,-1
 146 133 l 2,14,15
 146 40 146 40 239 40 c 2,16,-1
 474 40 l 1,17,-1
 474 21 l 1,18,-1
 446 0 l 1,19,-1
 335 0 l 1,20,-1
 335 -110 l 1,21,-1
 297 -110 l 1,22,-1
 297 0 l 1,23,-1
 244 0 l 2,24,25
 101 0 101 0 101 143 c 2,0,-1
EndSplineSet
EndChar

StartChar: sterling
Encoding: 100 163 100
Width: 578
Flags: W
LayerCount: 2
Fore
SplineSet
70 0 m 1,0,-1
 70 44 l 1,1,-1
 161 44 l 1,2,-1
 161 326 l 1,3,-1
 70 326 l 1,4,-1
 70 364 l 1,5,-1
 161 364 l 1,6,-1
 161 546 l 2,7,8
 161 690 161 690 305 690 c 2,9,-1
 466 690 l 1,10,-1
 498 665 l 1,11,-1
 498 646 l 1,12,-1
 300 646 l 2,13,14
 209 646 209 646 209 556 c 2,15,-1
 209 364 l 1,16,-1
 412 364 l 1,17,-1
 412 326 l 1,18,-1
 209 326 l 1,19,-1
 209 44 l 1,20,-1
 518 44 l 1,21,-1
 518 0 l 1,22,-1
 70 0 l 1,0,-1
EndSplineSet
EndChar

StartChar: currency
Encoding: 101 164 101
Width: 578
Flags: W
LayerCount: 2
Fore
SplineSet
67 148 m 1,0,-1
 138 219 l 1,1,-1
 138 481 l 1,2,-1
 67 552 l 1,3,-1
 92 577 l 1,4,-1
 163 506 l 1,5,-1
 415 506 l 1,6,-1
 486 577 l 1,7,-1
 511 552 l 1,8,-1
 440 481 l 1,9,-1
 440 219 l 1,10,-1
 511 148 l 1,11,-1
 486 123 l 1,12,-1
 415 194 l 1,13,-1
 163 194 l 1,14,-1
 92 123 l 1,15,-1
 67 148 l 1,0,-1
175 269 m 2,16,17
 175 225 175 225 219 225 c 2,18,-1
 359 225 l 2,19,20
 403 225 403 225 403 269 c 2,21,-1
 403 431 l 2,22,23
 403 475 403 475 359 475 c 2,24,-1
 219 475 l 2,25,26
 175 475 175 475 175 431 c 2,27,-1
 175 269 l 2,16,17
EndSplineSet
EndChar

StartChar: yen
Encoding: 102 165 102
Width: 578
Flags: W
LayerCount: 2
Fore
SplineSet
43 677 m 1,0,-1
 50 690 l 1,1,-1
 90 690 l 1,2,-1
 289 327 l 1,3,-1
 488 690 l 1,4,-1
 528 690 l 1,5,-1
 535 677 l 1,6,-1
 326 306 l 1,7,-1
 475 306 l 1,8,-1
 475 265 l 1,9,-1
 313 265 l 1,10,-1
 313 175 l 1,11,-1
 475 175 l 1,12,-1
 475 134 l 1,13,-1
 313 134 l 1,14,-1
 313 0 l 1,15,-1
 265 0 l 1,16,-1
 265 134 l 1,17,-1
 103 134 l 1,18,-1
 103 175 l 1,19,-1
 265 175 l 1,20,-1
 265 265 l 1,21,-1
 103 265 l 1,22,-1
 103 306 l 1,23,-1
 252 306 l 1,24,-1
 43 677 l 1,0,-1
EndSplineSet
EndChar

StartChar: brokenbar
Encoding: 103 166 103
Width: 251
Flags: W
LayerCount: 2
Fore
SplineSet
104 166 m 1,0,-1
 148 166 l 1,1,-1
 148 -200 l 1,2,-1
 104 -200 l 1,3,-1
 104 166 l 1,0,-1
104 374 m 1,4,-1
 104 740 l 1,5,-1
 148 740 l 1,6,-1
 148 374 l 1,7,-1
 104 374 l 1,4,-1
EndSplineSet
EndChar

StartChar: section
Encoding: 104 167 104
Width: 538
Flags: W
LayerCount: 2
Fore
SplineSet
86 -60 m 1,0,-1
 312 -60 l 2,1,2
 406 -60 406 -60 406 29 c 256,3,4
 406 97 406 97 366 107 c 2,5,-1
 178 154 l 2,6,7
 86 177 86 177 86 282 c 2,8,-1
 86 435 l 1,9,-1
 115 464 l 1,10,11
 86 495 86 495 86 555 c 256,12,13
 86 690 86 690 225 690 c 2,14,-1
 401 690 l 1,15,-1
 429 669 l 1,16,-1
 429 650 l 1,17,-1
 226 650 l 2,18,19
 132 650 132 650 132 561 c 256,20,21
 132 493 132 493 172 483 c 2,22,-1
 360 436 l 2,23,24
 452 413 452 413 452 308 c 2,25,-1
 452 155 l 1,26,-1
 423 126 l 1,27,28
 452 95 452 95 452 35 c 256,29,30
 452 -100 452 -100 313 -100 c 2,31,-1
 114 -100 l 1,32,-1
 86 -79 l 1,33,-1
 86 -60 l 1,0,-1
132 285 m 2,34,35
 132 213 132 213 194 197 c 2,36,-1
 406 144 l 1,37,-1
 406 305 l 2,38,39
 406 377 406 377 344 393 c 2,40,-1
 132 446 l 1,41,-1
 132 285 l 2,34,35
EndSplineSet
EndChar

StartChar: copyright
Encoding: 106 169 106
Width: 838
Flags: W
LayerCount: 2
Fore
SplineSet
85 85 m 2,0,-1
 85 605 l 2,1,2
 85 690 85 690 170 690 c 2,3,-1
 668 690 l 2,4,5
 753 690 753 690 753 605 c 2,6,-1
 753 85 l 2,7,8
 753 0 753 0 668 0 c 2,9,-1
 170 0 l 2,10,11
 85 0 85 0 85 85 c 2,0,-1
120 79 m 2,12,13
 120 31 120 31 167 31 c 2,14,-1
 670 31 l 2,15,16
 718 31 718 31 718 79 c 2,17,-1
 718 611 l 2,18,19
 718 659 718 659 670 659 c 2,20,-1
 167 659 l 2,21,22
 120 659 120 659 120 611 c 2,23,-1
 120 79 l 2,12,13
262 231 m 2,24,-1
 262 459 l 2,25,26
 262 545 262 545 348 545 c 2,27,-1
 523 545 l 1,28,-1
 546 527 l 1,29,-1
 546 511 l 1,30,-1
 345 511 l 2,31,32
 299 511 299 511 299 465 c 2,33,-1
 299 225 l 2,34,35
 299 179 299 179 345 179 c 2,36,-1
 546 179 l 1,37,-1
 546 163 l 1,38,-1
 523 145 l 1,39,-1
 348 145 l 2,40,41
 262 145 262 145 262 231 c 2,24,-1
EndSplineSet
EndChar

StartChar: ordfeminine
Encoding: 107 170 107
Width: 398
Flags: W
LayerCount: 2
Fore
SplineSet
44 388 m 2,0,-1
 44 439 l 2,1,2
 44 525 44 525 130 525 c 2,3,-1
 306 525 l 1,4,-1
 306 610 l 2,5,6
 306 656 306 656 260 656 c 2,7,-1
 69 656 l 1,8,-1
 69 672 l 1,9,-1
 92 690 l 1,10,-1
 258 690 l 2,11,12
 344 690 344 690 344 604 c 2,13,-1
 344 302 l 1,14,-1
 130 302 l 2,15,16
 44 302 44 302 44 388 c 2,0,-1
81 382 m 2,17,18
 81 336 81 336 127 336 c 2,19,-1
 306 336 l 1,20,-1
 306 491 l 1,21,-1
 127 491 l 2,22,23
 81 491 81 491 81 445 c 2,24,-1
 81 382 l 2,17,18
EndSplineSet
EndChar

StartChar: logicalnot
Encoding: 109 172 109
Width: 578
Flags: W
LayerCount: 2
Fore
SplineSet
66 364 m 1,0,-1
 66 406 l 1,1,-1
 512 406 l 1,2,-1
 512 152 l 1,3,-1
 468 152 l 1,4,-1
 468 364 l 1,5,-1
 66 364 l 1,0,-1
EndSplineSet
EndChar

StartChar: registered
Encoding: 111 174 111
Width: 838
Flags: W
LayerCount: 2
Fore
SplineSet
85 85 m 2,0,-1
 85 605 l 2,1,2
 85 690 85 690 170 690 c 2,3,-1
 668 690 l 2,4,5
 753 690 753 690 753 605 c 2,6,-1
 753 85 l 2,7,8
 753 0 753 0 668 0 c 2,9,-1
 170 0 l 2,10,11
 85 0 85 0 85 85 c 2,0,-1
120 79 m 2,12,13
 120 31 120 31 167 31 c 2,14,-1
 670 31 l 2,15,16
 718 31 718 31 718 79 c 2,17,-1
 718 611 l 2,18,19
 718 659 718 659 670 659 c 2,20,-1
 167 659 l 2,21,22
 120 659 120 659 120 611 c 2,23,-1
 120 79 l 2,12,13
283 145 m 1,24,-1
 283 545 l 1,25,-1
 477 545 l 2,26,27
 563 545 563 545 563 459 c 2,28,-1
 563 396 l 2,29,30
 563 320 563 320 497 311 c 1,31,-1
 576 155 l 1,32,-1
 571 145 l 1,33,-1
 540 145 l 1,34,-1
 455 310 l 1,35,-1
 321 310 l 1,36,-1
 321 145 l 1,37,-1
 283 145 l 1,24,-1
321 344 m 1,38,-1
 479 344 l 2,39,40
 525 344 525 344 525 390 c 2,41,-1
 525 465 l 2,42,43
 525 511 525 511 479 511 c 2,44,-1
 321 511 l 1,45,-1
 321 344 l 1,38,-1
EndSplineSet
EndChar

StartChar: degree
Encoding: 113 176 113
Width: 409
Flags: W
LayerCount: 2
Fore
SplineSet
65 456 m 2,0,-1
 65 604 l 2,1,2
 65 690 65 690 151 690 c 2,3,-1
 258 690 l 2,4,5
 344 690 344 690 344 604 c 2,6,-1
 344 456 l 2,7,8
 344 370 344 370 258 370 c 2,9,-1
 151 370 l 2,10,11
 65 370 65 370 65 456 c 2,0,-1
100 451 m 2,12,13
 100 401 100 401 150 401 c 2,14,-1
 259 401 l 2,15,16
 309 401 309 401 309 451 c 2,17,-1
 309 609 l 2,18,19
 309 659 309 659 259 659 c 2,20,-1
 150 659 l 2,21,22
 100 659 100 659 100 609 c 2,23,-1
 100 451 l 2,12,13
EndSplineSet
EndChar

StartChar: plusminus
Encoding: 114 177 114
Width: 578
Flags: W
LayerCount: 2
Fore
SplineSet
66 0 m 1,0,-1
 66 41 l 1,1,-1
 512 41 l 1,2,-1
 512 0 l 1,3,-1
 66 0 l 1,0,-1
66 322 m 1,4,-1
 66 364 l 1,5,-1
 267 364 l 1,6,-1
 267 570 l 1,7,-1
 311 570 l 1,8,-1
 311 364 l 1,9,-1
 512 364 l 1,10,-1
 512 322 l 1,11,-1
 311 322 l 1,12,-1
 311 116 l 1,13,-1
 267 116 l 1,14,-1
 267 322 l 1,15,-1
 66 322 l 1,4,-1
EndSplineSet
EndChar

StartChar: uni00B2
Encoding: 115 178 115
Width: 356
Flags: W
LayerCount: 2
Fore
SplineSet
44 284 m 1,0,-1
 44 400 l 2,1,2
 44 474 44 474 110 487 c 10,3,-1
 235 512 l 2,4,5
 275 520 275 520 275 559 c 2,6,-1
 275 610 l 2,7,8
 275 656 275 656 229 656 c 2,9,-1
 56 656 l 1,10,-1
 56 672 l 1,11,-1
 79 690 l 1,12,-1
 227 690 l 2,13,14
 313 690 313 690 313 604 c 2,15,-1
 313 567 l 2,16,17
 313 492 313 492 247 479 c 10,18,-1
 122 454 l 2,19,20
 81 446 81 446 81 407 c 2,21,-1
 81 318 l 1,22,-1
 313 318 l 1,23,-1
 313 284 l 1,24,-1
 44 284 l 1,0,-1
EndSplineSet
EndChar

StartChar: uni00B3
Encoding: 116 179 116
Width: 356
Flags: W
LayerCount: 2
Fore
SplineSet
50 301 m 1,0,-1
 50 318 l 1,1,-1
 229 318 l 2,2,3
 275 318 275 318 275 364 c 2,4,-1
 275 432 l 2,5,6
 275 478 275 478 229 478 c 2,7,-1
 94 478 l 1,8,-1
 94 512 l 1,9,-1
 229 512 l 2,10,11
 275 512 275 512 275 558 c 2,12,-1
 275 610 l 2,13,14
 275 656 275 656 229 656 c 2,15,-1
 56 656 l 1,16,-1
 56 672 l 1,17,-1
 79 690 l 1,18,-1
 227 690 l 2,19,20
 313 690 313 690 313 604 c 2,21,-1
 313 565 l 2,22,23
 313 538 313 538 296 521 c 2,24,-1
 273 498 l 1,25,-1
 296 475 l 2,26,27
 313 458 313 458 313 431 c 2,28,-1
 313 369 l 2,29,30
 313 284 313 284 227 284 c 2,31,-1
 73 284 l 1,32,-1
 50 301 l 1,0,-1
EndSplineSet
EndChar

StartChar: mu
Encoding: 118 181 118
Width: 581
Flags: W
LayerCount: 2
Fore
SplineSet
85 -200 m 1,0,-1
 85 515 l 1,1,-1
 130 515 l 1,2,-1
 130 40 l 1,3,-1
 362 40 l 2,4,5
 455 40 455 40 455 133 c 2,6,-1
 455 515 l 1,7,-1
 500 515 l 1,8,-1
 500 143 l 2,9,10
 500 0 500 0 358 0 c 2,11,-1
 130 0 l 1,12,-1
 130 -200 l 1,13,-1
 85 -200 l 1,0,-1
EndSplineSet
EndChar

StartChar: paragraph
Encoding: 119 182 119
Width: 537
Flags: W
LayerCount: 2
Fore
SplineSet
75 408 m 2,0,-1
 75 540 l 2,1,2
 75 690 75 690 225 690 c 2,3,-1
 317 690 l 1,4,-1
 317 258 l 1,5,-1
 225 258 l 2,6,7
 75 258 75 258 75 408 c 2,0,-1
387 -170 m 1,8,-1
 387 690 l 1,9,-1
 432 690 l 1,10,-1
 432 -170 l 1,11,-1
 387 -170 l 1,8,-1
EndSplineSet
EndChar

StartChar: uni00B9
Encoding: 122 185 122
Width: 356
Flags: W
LayerCount: 2
Fore
SplineSet
62 284 m 1,0,-1
 62 318 l 1,1,-1
 170 318 l 1,2,-1
 170 656 l 1,3,-1
 86 656 l 1,4,-1
 86 672 l 1,5,-1
 109 690 l 1,6,-1
 208 690 l 1,7,-1
 208 318 l 1,8,-1
 307 318 l 1,9,-1
 307 284 l 1,10,-1
 62 284 l 1,0,-1
EndSplineSet
EndChar

StartChar: ordmasculine
Encoding: 123 186 123
Width: 428
Flags: W
LayerCount: 2
Fore
SplineSet
54 388 m 2,0,-1
 54 604 l 2,1,2
 54 690 54 690 140 690 c 2,3,-1
 288 690 l 2,4,5
 374 690 374 690 374 604 c 2,6,-1
 374 388 l 2,7,8
 374 302 374 302 288 302 c 2,9,-1
 140 302 l 2,10,11
 54 302 54 302 54 388 c 2,0,-1
91 382 m 2,12,13
 91 336 91 336 137 336 c 2,14,-1
 290 336 l 2,15,16
 336 336 336 336 336 382 c 2,17,-1
 336 610 l 2,18,19
 336 656 336 656 290 656 c 2,20,-1
 137 656 l 2,21,22
 91 656 91 656 91 610 c 2,23,-1
 91 382 l 2,12,13
EndSplineSet
EndChar

StartChar: questiondown
Encoding: 128 191 128
Width: 466
Flags: W
LayerCount: 2
Fore
SplineSet
50 -31 m 2,0,-1
 50 63 l 2,1,2
 50 207 50 207 194 207 c 2,3,-1
 255 207 l 1,4,-1
 255 312 l 1,5,-1
 305 312 l 1,6,-1
 305 163 l 1,7,-1
 189 163 l 2,8,9
 98 163 98 163 98 72 c 2,10,-1
 98 -40 l 2,11,12
 98 -131 98 -131 189 -131 c 2,13,-1
 446 -131 l 1,14,-1
 446 -150 l 1,15,-1
 414 -175 l 1,16,-1
 194 -175 l 2,17,18
 50 -175 50 -175 50 -31 c 2,0,-1
248 430 m 1,19,-1
 248 515 l 1,20,-1
 314 515 l 1,21,-1
 314 430 l 1,22,-1
 248 430 l 1,19,-1
EndSplineSet
EndChar

StartChar: AE
Encoding: 135 198 135
Width: 867
Flags: W
LayerCount: 2
Fore
SplineSet
21 13 m 1,0,-1
 260 690 l 1,1,-1
 817 690 l 1,2,-1
 817 646 l 1,3,-1
 469 646 l 1,4,-1
 469 388 l 1,5,-1
 787 388 l 1,6,-1
 787 344 l 1,7,-1
 469 344 l 1,8,-1
 469 44 l 1,9,-1
 817 44 l 1,10,-1
 817 0 l 1,11,-1
 421 0 l 1,12,-1
 421 194 l 1,13,-1
 134 194 l 1,14,-1
 68 0 l 1,15,-1
 30 0 l 1,16,-1
 21 13 l 1,0,-1
151 238 m 1,17,-1
 421 238 l 1,18,-1
 421 646 l 1,19,-1
 290 646 l 1,20,-1
 151 238 l 1,17,-1
EndSplineSet
EndChar

StartChar: Eth
Encoding: 145 208 145
Width: 682
Flags: W
LayerCount: 2
Fore
SplineSet
20 326 m 1,0,-1
 20 364 l 1,1,-1
 101 364 l 1,2,-1
 101 690 l 1,3,-1
 401 690 l 2,4,5
 607 690 607 690 607 484 c 2,6,-1
 607 206 l 2,7,8
 607 0 607 0 401 0 c 2,9,-1
 101 0 l 1,10,-1
 101 326 l 1,11,-1
 20 326 l 1,0,-1
149 44 m 1,12,-1
 401 44 l 2,13,14
 559 44 559 44 559 202 c 2,15,-1
 559 488 l 2,16,17
 559 646 559 646 401 646 c 2,18,-1
 149 646 l 1,19,-1
 149 364 l 1,20,-1
 354 364 l 1,21,-1
 354 326 l 1,22,-1
 149 326 l 1,23,-1
 149 44 l 1,12,-1
EndSplineSet
EndChar

StartChar: multiply
Encoding: 152 215 152
Width: 578
Flags: W
LayerCount: 2
Fore
SplineSet
94 170 m 1,0,-1
 259 335 l 1,1,-1
 94 500 l 1,2,-1
 124 530 l 1,3,-1
 289 365 l 1,4,-1
 454 530 l 1,5,-1
 484 500 l 1,6,-1
 319 335 l 1,7,-1
 484 170 l 1,8,-1
 454 140 l 1,9,-1
 289 305 l 1,10,-1
 124 140 l 1,11,-1
 94 170 l 1,0,-1
EndSplineSet
EndChar

StartChar: Oslash
Encoding: 153 216 153
Width: 695
Flags: W
LayerCount: 2
Fore
SplineSet
85 144 m 2,0,-1
 85 546 l 2,1,2
 85 690 85 690 229 690 c 2,3,-1
 466 690 l 2,4,5
 610 690 610 690 610 546 c 2,6,-1
 610 144 l 2,7,8
 610 0 610 0 466 0 c 2,9,-1
 229 0 l 2,10,11
 85 0 85 0 85 144 c 2,0,-1
133 180 m 1,12,-1
 561 566 l 1,13,14
 557 646 557 646 472 646 c 2,15,-1
 224 646 l 2,16,17
 133 646 133 646 133 556 c 2,18,-1
 133 180 l 1,12,-1
134 124 m 1,19,20
 138 44 138 44 224 44 c 2,21,-1
 472 44 l 2,22,23
 562 44 562 44 562 134 c 2,24,-1
 562 510 l 1,25,-1
 134 124 l 1,19,20
EndSplineSet
EndChar

StartChar: Thorn
Encoding: 159 222 159
Width: 625
Flags: W
LayerCount: 2
Fore
SplineSet
95 0 m 1,0,-1
 95 690 l 1,1,-1
 143 690 l 1,2,-1
 143 558 l 1,3,-1
 416 558 l 2,4,5
 560 558 560 558 560 414 c 2,6,-1
 560 290 l 2,7,8
 560 146 560 146 416 146 c 2,9,-1
 143 146 l 1,10,-1
 143 0 l 1,11,-1
 95 0 l 1,0,-1
143 190 m 1,12,-1
 422 190 l 2,13,14
 512 190 512 190 512 280 c 2,15,-1
 512 424 l 2,16,17
 512 514 512 514 422 514 c 2,18,-1
 143 514 l 1,19,-1
 143 190 l 1,12,-1
EndSplineSet
EndChar

StartChar: germandbls
Encoding: 160 223 160
Width: 591
Flags: W
LayerCount: 2
Fore
SplineSet
85 0 m 1,0,-1
 85 597 l 2,1,2
 85 740 85 740 228 740 c 2,3,-1
 352 740 l 2,4,5
 494 740 494 740 494 597 c 2,6,-1
 494 491 l 2,7,8
 494 457 494 457 474 433 c 2,9,-1
 439 391 l 1,10,-1
 481 356 l 2,11,12
 514 328 514 328 514 276 c 2,13,-1
 514 143 l 2,14,15
 514 0 514 0 372 0 c 2,16,-1
 265 0 l 1,17,-1
 237 21 l 1,18,-1
 237 40 l 1,19,-1
 376 40 l 2,20,21
 469 40 469 40 469 133 c 2,22,-1
 469 272 l 2,23,24
 469 365 469 365 376 365 c 2,25,-1
 247 365 l 1,26,-1
 247 405 l 1,27,-1
 356 405 l 2,28,29
 449 405 449 405 449 498 c 2,30,-1
 449 607 l 2,31,32
 449 700 449 700 356 700 c 2,33,-1
 223 700 l 2,34,35
 130 700 130 700 130 607 c 2,36,-1
 130 0 l 1,37,-1
 85 0 l 1,0,-1
EndSplineSet
EndChar

StartChar: ae
Encoding: 167 230 167
Width: 881
Flags: W
LayerCount: 2
Fore
SplineSet
201 0 m 2,0,1
 57 0 57 0 57 146 c 128,-1,2
 57 292 57 292 201 292 c 2,3,-1
 405 292 l 1,4,-1
 405 382 l 2,5,6
 405 475 405 475 312 475 c 2,7,-1
 103 475 l 1,8,-1
 103 494 l 1,9,-1
 131 515 l 1,10,-1
 308 515 l 2,11,12
 393 515 393 515 428 463 c 1,13,14
 463 515 463 515 548 515 c 2,15,-1
 662 515 l 2,16,17
 804 515 804 515 804 372 c 2,18,-1
 804 239 l 1,19,-1
 450 239 l 1,20,-1
 450 133 l 2,21,22
 450 40 450 40 543 40 c 2,23,-1
 784 40 l 1,24,-1
 784 21 l 1,25,-1
 756 0 l 1,26,-1
 548 0 l 2,27,28
 463 0 463 0 428 52 c 1,29,30
 393 0 393 0 308 0 c 2,31,-1
 201 0 l 2,0,1
102 133 m 2,32,33
 102 40 102 40 195 40 c 2,34,-1
 312 40 l 2,35,36
 405 40 405 40 405 133 c 2,37,-1
 405 252 l 1,38,-1
 195 252 l 2,39,40
 102 252 102 252 102 159 c 2,41,-1
 102 133 l 2,32,33
450 279 m 1,42,-1
 759 279 l 1,43,-1
 759 382 l 2,44,45
 759 475 759 475 666 475 c 2,46,-1
 543 475 l 2,47,48
 450 475 450 475 450 382 c 2,49,-1
 450 279 l 1,42,-1
EndSplineSet
EndChar

StartChar: eth
Encoding: 177 240 177
Width: 579
Flags: W
LayerCount: 2
Fore
SplineSet
77 143 m 2,0,-1
 77 307 l 2,1,2
 77 450 77 450 220 450 c 2,3,-1
 436 450 l 1,4,-1
 346 592 l 1,5,-1
 237 540 l 1,6,-1
 222 572 l 1,7,-1
 327 622 l 1,8,-1
 266 718 l 1,9,-1
 303 742 l 1,10,-1
 367 642 l 1,11,-1
 484 697 l 1,12,-1
 499 664 l 1,13,-1
 387 610 l 1,14,-1
 488 448 l 2,15,16
 502 426 502 426 502 388 c 2,17,-1
 502 143 l 2,18,19
 502 0 502 0 360 0 c 2,20,-1
 220 0 l 2,21,22
 77 0 77 0 77 143 c 2,0,-1
122 133 m 2,23,24
 122 40 122 40 215 40 c 2,25,-1
 364 40 l 2,26,27
 457 40 457 40 457 133 c 2,28,-1
 457 410 l 1,29,-1
 215 410 l 2,30,31
 122 410 122 410 122 317 c 2,32,-1
 122 133 l 2,23,24
EndSplineSet
EndChar

StartChar: divide
Encoding: 184 247 184
Width: 578
Flags: W
LayerCount: 2
Fore
SplineSet
66 314 m 1,0,-1
 66 356 l 1,1,-1
 512 356 l 1,2,-1
 512 314 l 1,3,-1
 66 314 l 1,0,-1
253 109 m 1,4,-1
 253 181 l 1,5,-1
 325 181 l 1,6,-1
 325 109 l 1,7,-1
 253 109 l 1,4,-1
253 489 m 1,8,-1
 253 561 l 1,9,-1
 325 561 l 1,10,-1
 325 489 l 1,11,-1
 253 489 l 1,8,-1
EndSplineSet
EndChar

StartChar: oslash
Encoding: 185 248 185
Width: 579
Flags: W
LayerCount: 2
Fore
SplineSet
77 143 m 2,0,-1
 77 372 l 2,1,2
 77 515 77 515 220 515 c 2,3,-1
 360 515 l 2,4,5
 502 515 502 515 502 372 c 2,6,-1
 502 143 l 2,7,8
 502 0 502 0 360 0 c 2,9,-1
 220 0 l 2,10,11
 77 0 77 0 77 143 c 2,0,-1
122 133 m 1,12,-1
 450 426 l 1,13,14
 431 475 431 475 364 475 c 2,15,-1
 215 475 l 2,16,17
 122 475 122 475 122 382 c 2,18,-1
 122 133 l 1,12,-1
129 89 m 1,19,20
 148 40 148 40 215 40 c 2,21,-1
 364 40 l 2,22,23
 457 40 457 40 457 133 c 2,24,-1
 457 382 l 1,25,-1
 129 89 l 1,19,20
EndSplineSet
EndChar

StartChar: thorn
Encoding: 191 254 191
Width: 577
Flags: W
LayerCount: 2
Fore
SplineSet
85 -200 m 1,0,-1
 85 740 l 1,1,-1
 130 740 l 1,2,-1
 130 515 l 1,3,-1
 358 515 l 2,4,5
 500 515 500 515 500 372 c 2,6,-1
 500 143 l 2,7,8
 500 0 500 0 358 0 c 2,9,-1
 130 0 l 1,10,-1
 130 -200 l 1,11,-1
 85 -200 l 1,0,-1
130 40 m 1,12,-1
 362 40 l 2,13,14
 455 40 455 40 455 133 c 2,15,-1
 455 382 l 2,16,17
 455 475 455 475 362 475 c 2,18,-1
 130 475 l 1,19,-1
 130 40 l 1,12,-1
EndSplineSet
EndChar

StartChar: dcroat
Encoding: 206 273 206
Width: 577
Flags: W
LayerCount: 2
Fore
SplineSet
77 143 m 2,0,-1
 77 372 l 2,1,2
 77 515 77 515 220 515 c 2,3,-1
 447 515 l 1,4,-1
 447 608 l 1,5,-1
 247 608 l 1,6,-1
 247 647 l 1,7,-1
 447 647 l 1,8,-1
 447 740 l 1,9,-1
 492 740 l 1,10,-1
 492 647 l 1,11,-1
 564 647 l 1,12,-1
 564 608 l 1,13,-1
 492 608 l 1,14,-1
 492 0 l 1,15,-1
 220 0 l 2,16,17
 77 0 77 0 77 143 c 2,0,-1
122 133 m 2,18,19
 122 40 122 40 215 40 c 2,20,-1
 447 40 l 1,21,-1
 447 475 l 1,22,-1
 215 475 l 2,23,24
 122 475 122 475 122 382 c 2,25,-1
 122 133 l 2,18,19
EndSplineSet
EndChar

StartChar: dotlessi
Encoding: 224 305 224
Width: 215
Flags: W
LayerCount: 2
Fore
SplineSet
85 0 m 1,0,-1
 85 515 l 1,1,-1
 130 515 l 1,2,-1
 130 0 l 1,3,-1
 85 0 l 1,0,-1
EndSplineSet
EndChar

StartChar: Lslash
Encoding: 233 321 233
Width: 524
Flags: W
LayerCount: 2
Fore
SplineSet
10 272 m 1,0,-1
 93 320 l 1,1,-1
 93 690 l 1,2,-1
 141 690 l 1,3,-1
 141 347 l 1,4,-1
 290 433 l 1,5,-1
 309 400 l 1,6,-1
 141 304 l 1,7,-1
 141 44 l 1,8,-1
 500 44 l 1,9,-1
 500 0 l 1,10,-1
 93 0 l 1,11,-1
 93 276 l 1,12,-1
 29 239 l 1,13,-1
 10 272 l 1,0,-1
EndSplineSet
EndChar

StartChar: lslash
Encoding: 234 322 234
Width: 241
Flags: W
LayerCount: 2
Fore
SplineSet
8 327 m 1,0,-1
 86 372 l 1,1,-1
 86 740 l 1,2,-1
 131 740 l 1,3,-1
 131 398 l 1,4,-1
 212 445 l 1,5,-1
 230 413 l 1,6,-1
 131 357 l 1,7,-1
 131 108 l 2,8,9
 131 34 131 34 205 32 c 1,10,-1
 205 -7 l 1,11,12
 86 -7 86 -7 86 112 c 2,13,-1
 86 331 l 1,14,-1
 27 295 l 1,15,-1
 8 327 l 1,0,-1
EndSplineSet
EndChar

StartChar: OE
Encoding: 245 338 245
Width: 954
Flags: W
LayerCount: 2
Fore
SplineSet
85 144 m 2,0,-1
 85 546 l 2,1,2
 85 690 85 690 229 690 c 2,3,-1
 904 690 l 1,4,-1
 904 646 l 1,5,-1
 556 646 l 1,6,-1
 556 388 l 1,7,-1
 874 388 l 1,8,-1
 874 344 l 1,9,-1
 556 344 l 1,10,-1
 556 44 l 1,11,-1
 904 44 l 1,12,-1
 904 0 l 1,13,-1
 229 0 l 2,14,15
 85 0 85 0 85 144 c 2,0,-1
133 134 m 2,16,17
 133 44 133 44 224 44 c 2,18,-1
 508 44 l 1,19,-1
 508 646 l 1,20,-1
 224 646 l 2,21,22
 133 646 133 646 133 556 c 2,23,-1
 133 134 l 2,16,17
EndSplineSet
EndChar

StartChar: oe
Encoding: 246 339 246
Width: 918
Flags: W
LayerCount: 2
Fore
SplineSet
77 143 m 2,0,-1
 77 372 l 2,1,2
 77 515 77 515 220 515 c 2,3,-1
 344 515 l 2,4,5
 429 515 429 515 464 463 c 1,6,7
 499 515 499 515 584 515 c 2,8,-1
 698 515 l 2,9,10
 841 515 841 515 841 372 c 2,11,-1
 841 239 l 1,12,-1
 486 239 l 1,13,-1
 486 133 l 2,14,15
 486 40 486 40 579 40 c 2,16,-1
 821 40 l 1,17,-1
 821 21 l 1,18,-1
 793 0 l 1,19,-1
 584 0 l 2,20,21
 499 0 499 0 464 52 c 1,22,23
 429 0 429 0 344 0 c 2,24,-1
 220 0 l 2,25,26
 77 0 77 0 77 143 c 2,0,-1
122 133 m 2,27,28
 122 40 122 40 215 40 c 2,29,-1
 348 40 l 2,30,31
 441 40 441 40 441 133 c 2,32,-1
 441 382 l 2,33,34
 441 475 441 475 348 475 c 2,35,-1
 215 475 l 2,36,37
 122 475 122 475 122 382 c 2,38,-1
 122 133 l 2,27,28
486 279 m 1,39,-1
 796 279 l 1,40,-1
 796 382 l 2,41,42
 796 475 796 475 703 475 c 2,43,-1
 579 475 l 2,44,45
 486 475 486 475 486 382 c 2,46,-1
 486 279 l 1,39,-1
EndSplineSet
EndChar

StartChar: florin
Encoding: 278 402 278
Width: 565
Flags: W
LayerCount: 2
Fore
SplineSet
40 -87 m 1,0,-1
 102 -87 l 2,1,2
 195 -87 195 -87 195 6 c 2,3,-1
 195 597 l 2,4,5
 195 740 195 740 338 740 c 2,6,-1
 423 740 l 1,7,-1
 451 719 l 1,8,-1
 451 700 l 1,9,-1
 333 700 l 2,10,11
 240 700 240 700 240 607 c 2,12,-1
 240 515 l 1,13,-1
 441 515 l 1,14,-1
 441 475 l 1,15,-1
 240 475 l 1,16,-1
 240 16 l 2,17,18
 240 -127 240 -127 97 -127 c 2,19,-1
 68 -127 l 1,20,-1
 40 -106 l 1,21,-1
 40 -87 l 1,0,-1
EndSplineSet
EndChar

StartChar: uni0237
Encoding: 283 567 283
Width: 215
Flags: W
LayerCount: 2
Fore
SplineSet
-7 -168 m 1,0,1
 85 -166 85 -166 85 -74 c 2,2,-1
 85 515 l 1,3,-1
 130 515 l 1,4,-1
 130 -70 l 2,5,6
 130 -207 130 -207 -7 -207 c 1,7,-1
 -7 -168 l 1,0,1
EndSplineSet
EndChar

StartChar: uni0300
Encoding: 293 768 293
Width: 0
Flags: W
LayerCount: 2
Fore
SplineSet
-392 701 m 1,0,-1
 -359 734 l 1,1,-1
 -235 597 l 1,2,-1
 -263 570 l 1,3,-1
 -392 701 l 1,0,-1
EndSplineSet
EndChar

StartChar: uni0301
Encoding: 294 769 294
Width: 0
Flags: W
LayerCount: 2
Fore
SplineSet
-332 597 m 1,0,-1
 -208 734 l 1,1,-1
 -175 701 l 1,2,-1
 -305 571 l 1,3,-1
 -332 597 l 1,0,-1
EndSplineSet
EndChar

StartChar: uni0302
Encoding: 295 770 295
Width: 0
Flags: W
LayerCount: 2
Fore
SplineSet
-410 612 m 1,0,-1
 -284 735 l 1,1,-1
 -157 612 l 1,2,-1
 -184 583 l 1,3,-1
 -284 678 l 1,4,-1
 -383 583 l 1,5,-1
 -410 612 l 1,0,-1
EndSplineSet
EndChar

StartChar: uni0303
Encoding: 296 771 296
Width: 0
Flags: W
LayerCount: 2
Fore
SplineSet
-425 630 m 1,0,-1
 -380 675 l 2,1,2
 -356 698 -356 698 -330 698 c 128,-1,3
 -304 698 -304 698 -282 675 c 2,4,-1
 -258 651 l 2,5,6
 -246 639 -246 639 -236 639 c 128,-1,7
 -226 639 -226 639 -214 651 c 2,8,-1
 -169 696 l 1,9,-1
 -142 669 l 1,10,-1
 -187 624 l 2,11,12
 -210 601 -210 601 -236 601 c 128,-1,13
 -262 601 -262 601 -285 624 c 2,14,-1
 -309 648 l 2,15,16
 -320 660 -320 660 -330 660 c 128,-1,17
 -340 660 -340 660 -353 648 c 2,18,-1
 -398 603 l 1,19,-1
 -425 630 l 1,0,-1
EndSplineSet
EndChar

StartChar: uni0304
Encoding: 297 772 297
Width: 0
Flags: W
LayerCount: 2
Fore
SplineSet
-404 629 m 1,0,-1
 -404 674 l 1,1,-1
 -163 674 l 1,2,-1
 -163 629 l 1,3,-1
 -404 629 l 1,0,-1
EndSplineSet
EndChar

StartChar: uni0306
Encoding: 298 774 298
Width: 0
Flags: W
LayerCount: 2
Fore
SplineSet
-401 663 m 2,0,-1
 -401 717 l 1,1,-1
 -362 717 l 1,2,-1
 -362 662 l 2,3,4
 -362 638 -362 638 -338 638 c 2,5,-1
 -229 638 l 2,6,7
 -205 638 -205 638 -205 662 c 2,8,-1
 -205 717 l 1,9,-1
 -166 717 l 1,10,-1
 -166 663 l 2,11,12
 -166 599 -166 599 -231 599 c 2,13,-1
 -337 599 l 2,14,15
 -401 599 -401 599 -401 663 c 2,0,-1
EndSplineSet
EndChar

StartChar: uni0307
Encoding: 299 775 299
Width: 0
Flags: W
LayerCount: 2
Fore
SplineSet
-311 618 m 1,0,-1
 -311 687 l 1,1,-1
 -256 687 l 1,2,-1
 -256 618 l 1,3,-1
 -311 618 l 1,0,-1
EndSplineSet
EndChar

StartChar: uni0308
Encoding: 300 776 300
Width: 0
Flags: W
LayerCount: 2
Fore
SplineSet
-395 620 m 1,0,-1
 -395 686 l 1,1,-1
 -340 686 l 1,2,-1
 -340 620 l 1,3,-1
 -395 620 l 1,0,-1
-228 620 m 1,4,-1
 -228 686 l 1,5,-1
 -173 686 l 1,6,-1
 -173 620 l 1,7,-1
 -228 620 l 1,4,-1
EndSplineSet
EndChar

StartChar: uni030A
Encoding: 301 778 301
Width: 0
Flags: W
LayerCount: 2
Fore
SplineSet
-377 637 m 2,0,-1
 -377 694 l 2,1,2
 -377 757 -377 757 -314 757 c 2,3,-1
 -253 757 l 2,4,5
 -190 757 -190 757 -190 694 c 2,6,-1
 -190 637 l 2,7,8
 -190 574 -190 574 -253 574 c 2,9,-1
 -314 574 l 2,10,11
 -377 574 -377 574 -377 637 c 2,0,-1
-341 634 m 2,12,13
 -341 607 -341 607 -314 607 c 2,14,-1
 -254 607 l 2,15,16
 -226 607 -226 607 -226 634 c 2,17,-1
 -226 697 l 2,18,19
 -226 724 -226 724 -254 724 c 2,20,-1
 -314 724 l 2,21,22
 -341 724 -341 724 -341 697 c 2,23,-1
 -341 634 l 2,12,13
EndSplineSet
EndChar

StartChar: uni030B
Encoding: 302 779 302
Width: 0
Flags: W
LayerCount: 2
Fore
SplineSet
-390 596 m 1,0,-1
 -280 735 l 1,1,-1
 -243 702 l 1,2,-1
 -362 570 l 1,3,-1
 -390 596 l 1,0,-1
-237 596 m 1,4,-1
 -127 735 l 1,5,-1
 -90 702 l 1,6,-1
 -209 570 l 1,7,-1
 -237 596 l 1,4,-1
EndSplineSet
EndChar

StartChar: uni030C
Encoding: 303 780 303
Width: 0
Flags: W
LayerCount: 2
Fore
SplineSet
-410 697 m 1,0,-1
 -383 725 l 1,1,-1
 -284 631 l 1,2,-1
 -184 725 l 1,3,-1
 -157 697 l 1,4,-1
 -284 573 l 1,5,-1
 -410 697 l 1,0,-1
EndSplineSet
EndChar

StartChar: uni0326
Encoding: 304 806 304
Width: 0
Flags: W
LayerCount: 2
Fore
SplineSet
-343 -187 m 1,0,-1
 -306 -50 l 1,1,-1
 -260 -50 l 1,2,-1
 -254 -60 l 1,3,-1
 -307 -197 l 1,4,-1
 -343 -187 l 1,0,-1
EndSplineSet
EndChar

StartChar: uni0327
Encoding: 305 807 305
Width: 0
Flags: W
LayerCount: 2
Fore
SplineSet
-392 -141 m 1,0,-1
 -296 -141 l 2,1,2
 -250 -141 -250 -141 -250 -95 c 2,3,-1
 -250 20 l 1,4,-1
 -211 20 l 1,5,-1
 -211 -90 l 2,6,7
 -211 -176 -211 -176 -297 -176 c 2,8,-1
 -369 -176 l 1,9,-1
 -392 -159 l 1,10,-1
 -392 -141 l 1,0,-1
EndSplineSet
EndChar

StartChar: uni0328
Encoding: 306 808 306
Width: 0
Flags: W
LayerCount: 2
Fore
SplineSet
-344 -51 m 2,0,1
 -344 35 -344 35 -258 35 c 2,2,-1
 -231 35 l 1,3,-1
 -231 0 l 1,4,-1
 -262 0 l 2,5,6
 -306 0 -306 0 -306 -44 c 2,7,-1
 -306 -97 l 2,8,9
 -306 -141 -306 -141 -262 -141 c 2,10,-1
 -167 -141 l 1,11,-1
 -167 -159 l 1,12,-1
 -190 -176 l 1,13,-1
 -258 -176 l 2,14,15
 -344 -176 -344 -176 -344 -90 c 2,16,-1
 -344 -51 l 2,0,1
EndSplineSet
EndChar

StartChar: pi
Encoding: 307 960 307
Width: 585
Flags: W
LayerCount: 2
Fore
SplineSet
85 0 m 1,0,-1
 85 515 l 1,1,-1
 500 515 l 1,2,-1
 500 0 l 1,3,-1
 455 0 l 1,4,-1
 455 475 l 1,5,-1
 130 475 l 1,6,-1
 130 0 l 1,7,-1
 85 0 l 1,0,-1
EndSplineSet
EndChar

StartChar: uni1E9E
Encoding: 308 7838 308
Width: 673
Flags: W
LayerCount: 2
Fore
SplineSet
89 0 m 1,0,-1
 89 546 l 2,1,2
 89 690 89 690 233 690 c 2,3,-1
 554 690 l 1,4,-1
 554 650 l 1,5,-1
 353 388 l 1,6,-1
 464 388 l 2,7,8
 608 388 608 388 608 244 c 2,9,-1
 608 144 l 2,10,11
 608 0 608 0 464 0 c 2,12,-1
 297 0 l 1,13,-1
 266 25 l 1,14,-1
 266 44 l 1,15,-1
 470 44 l 2,16,17
 560 44 560 44 560 134 c 2,18,-1
 560 254 l 2,19,20
 560 344 560 344 470 344 c 2,21,-1
 292 344 l 1,22,-1
 292 384 l 1,23,-1
 493 646 l 1,24,-1
 228 646 l 2,25,26
 137 646 137 646 137 556 c 2,27,-1
 137 0 l 1,28,-1
 89 0 l 1,0,-1
EndSplineSet
EndChar

StartChar: endash
Encoding: 309 8211 309
Width: 580
Flags: W
LayerCount: 2
Fore
SplineSet
40 284 m 1,0,-1
 40 326 l 1,1,-1
 540 326 l 1,2,-1
 540 284 l 1,3,-1
 40 284 l 1,0,-1
EndSplineSet
EndChar

StartChar: emdash
Encoding: 310 8212 310
Width: 1000
Flags: W
LayerCount: 2
Fore
SplineSet
40 284 m 1,0,-1
 40 326 l 1,1,-1
 960 326 l 1,2,-1
 960 284 l 1,3,-1
 40 284 l 1,0,-1
EndSplineSet
EndChar

StartChar: quoteleft
Encoding: 311 8216 311
Width: 249
Flags: W
LayerCount: 2
Fore
SplineSet
78 534 m 1,0,-1
 156 744 l 1,1,-1
 191 736 l 1,2,-1
 132 524 l 1,3,-1
 84 524 l 1,4,-1
 78 534 l 1,0,-1
EndSplineSet
EndChar

StartChar: quoteright
Encoding: 312 8217 312
Width: 249
Flags: W
LayerCount: 2
Fore
SplineSet
70 529 m 1,0,-1
 129 740 l 1,1,-1
 177 740 l 1,2,-1
 183 730 l 1,3,-1
 105 520 l 1,4,-1
 70 529 l 1,0,-1
EndSplineSet
EndChar

StartChar: quotesinglbase
Encoding: 313 8218 313
Width: 249
Flags: W
LayerCount: 2
Fore
SplineSet
38 -126 m 1,0,-1
 97 86 l 1,1,-1
 144 86 l 1,2,-1
 150 76 l 1,3,-1
 73 -134 l 1,4,-1
 38 -126 l 1,0,-1
EndSplineSet
EndChar

StartChar: dagger
Encoding: 317 8224 317
Width: 485
Flags: W
LayerCount: 2
Fore
SplineSet
50 434 m 1,0,-1
 50 476 l 1,1,-1
 221 476 l 1,2,-1
 221 690 l 1,3,-1
 265 690 l 1,4,-1
 265 476 l 1,5,-1
 435 476 l 1,6,-1
 435 434 l 1,7,-1
 265 434 l 1,8,-1
 265 -100 l 1,9,-1
 221 -100 l 1,10,-1
 221 434 l 1,11,-1
 50 434 l 1,0,-1
EndSplineSet
EndChar

StartChar: daggerdbl
Encoding: 318 8225 318
Width: 485
Flags: W
LayerCount: 2
Fore
SplineSet
50 114 m 1,0,-1
 50 156 l 1,1,-1
 221 156 l 1,2,-1
 221 434 l 1,3,-1
 50 434 l 1,4,-1
 50 476 l 1,5,-1
 221 476 l 1,6,-1
 221 690 l 1,7,-1
 265 690 l 1,8,-1
 265 476 l 1,9,-1
 435 476 l 1,10,-1
 435 434 l 1,11,-1
 265 434 l 1,12,-1
 265 156 l 1,13,-1
 435 156 l 1,14,-1
 435 114 l 1,15,-1
 265 114 l 1,16,-1
 265 -100 l 1,17,-1
 221 -100 l 1,18,-1
 221 114 l 1,19,-1
 50 114 l 1,0,-1
EndSplineSet
EndChar

StartChar: bullet
Encoding: 319 8226 319
Width: 355
Flags: W
LayerCount: 2
Fore
SplineSet
98 276 m 1,0,-1
 98 444 l 1,1,-1
 258 444 l 1,2,-1
 258 276 l 1,3,-1
 98 276 l 1,0,-1
EndSplineSet
EndChar

StartChar: guilsinglleft
Encoding: 322 8249 322
Width: 273
Flags: W
LayerCount: 2
Fore
SplineSet
30 315 m 1,0,-1
 202 532 l 1,1,-1
 233 506 l 1,2,-1
 85 315 l 1,3,-1
 233 124 l 1,4,-1
 202 98 l 1,5,-1
 30 315 l 1,0,-1
EndSplineSet
EndChar

StartChar: guilsinglright
Encoding: 323 8250 323
Width: 273
Flags: W
LayerCount: 2
Fore
SplineSet
40 124 m 1,0,-1
 188 315 l 1,1,-1
 40 506 l 1,2,-1
 71 532 l 1,3,-1
 243 315 l 1,4,-1
 71 98 l 1,5,-1
 40 124 l 1,0,-1
EndSplineSet
EndChar

StartChar: fraction
Encoding: 324 8260 324
Width: 134
Flags: W
LayerCount: 2
Fore
SplineSet
-116 24 m 1,0,-1
 214 684 l 1,1,-1
 250 666 l 1,2,-1
 -80 6 l 1,3,-1
 -116 24 l 1,0,-1
EndSplineSet
EndChar

StartChar: uni2070
Encoding: 325 8304 325
Width: 356
Flags: W
LayerCount: 2
Fore
SplineSet
44 370 m 2,0,-1
 44 604 l 2,1,2
 44 690 44 690 130 690 c 2,3,-1
 227 690 l 2,4,5
 313 690 313 690 313 604 c 2,6,-1
 313 370 l 2,7,8
 313 284 313 284 227 284 c 2,9,-1
 130 284 l 2,10,11
 44 284 44 284 44 370 c 2,0,-1
81 364 m 2,12,13
 81 318 81 318 127 318 c 2,14,-1
 229 318 l 2,15,16
 275 318 275 318 275 364 c 2,17,-1
 275 610 l 2,18,19
 275 656 275 656 229 656 c 2,20,-1
 127 656 l 2,21,22
 81 656 81 656 81 610 c 2,23,-1
 81 364 l 2,12,13
EndSplineSet
EndChar

StartChar: uni2074
Encoding: 326 8308 326
Width: 356
Flags: W
LayerCount: 2
Fore
SplineSet
44 368 m 1,0,-1
 44 398 l 1,1,-1
 185 690 l 1,2,-1
 217 690 l 1,3,-1
 223 680 l 1,4,-1
 89 402 l 1,5,-1
 275 402 l 1,6,-1
 275 550 l 1,7,-1
 313 550 l 1,8,-1
 313 284 l 1,9,-1
 275 284 l 1,10,-1
 275 368 l 1,11,-1
 44 368 l 1,0,-1
EndSplineSet
EndChar

StartChar: Euro
Encoding: 332 8364 332
Width: 578
Flags: W
LayerCount: 2
Fore
SplineSet
40 259 m 1,0,-1
 40 300 l 1,1,-1
 111 300 l 1,2,-1
 111 390 l 1,3,-1
 40 390 l 1,4,-1
 40 431 l 1,5,-1
 111 431 l 1,6,-1
 111 546 l 2,7,8
 111 690 111 690 255 690 c 2,9,-1
 496 690 l 1,10,-1
 528 665 l 1,11,-1
 528 646 l 1,12,-1
 250 646 l 2,13,14
 159 646 159 646 159 556 c 2,15,-1
 159 431 l 1,16,-1
 454 431 l 1,17,-1
 454 390 l 1,18,-1
 159 390 l 1,19,-1
 159 300 l 1,20,-1
 410 300 l 1,21,-1
 410 259 l 1,22,-1
 159 259 l 1,23,-1
 159 134 l 2,24,25
 159 44 159 44 250 44 c 2,26,-1
 528 44 l 1,27,-1
 528 25 l 1,28,-1
 496 0 l 1,29,-1
 255 0 l 2,30,31
 111 0 111 0 111 144 c 2,32,-1
 111 259 l 1,33,-1
 40 259 l 1,0,-1
EndSplineSet
EndChar

StartChar: uni20BA
Encoding: 333 8378 333
Width: 578
Flags: W
LayerCount: 2
Fore
SplineSet
25 298 m 1,0,-1
 131 341 l 1,1,-1
 131 427 l 1,2,-1
 41 390 l 1,3,-1
 25 429 l 1,4,-1
 131 472 l 1,5,-1
 131 690 l 1,6,-1
 179 690 l 1,7,-1
 179 491 l 1,8,-1
 384 574 l 1,9,-1
 400 534 l 1,10,-1
 179 446 l 1,11,-1
 179 360 l 1,12,-1
 384 443 l 1,13,-1
 400 403 l 1,14,-1
 179 315 l 1,15,-1
 179 44 l 1,16,-1
 289 44 l 2,17,18
 472 44 472 44 472 227 c 2,19,-1
 472 300 l 1,20,-1
 517 300 l 1,21,-1
 517 231 l 2,22,23
 517 0 517 0 286 0 c 2,24,-1
 131 0 l 1,25,-1
 131 296 l 1,26,-1
 41 259 l 1,27,-1
 25 298 l 1,0,-1
EndSplineSet
EndChar

StartChar: uni20BD
Encoding: 334 8381 334
Width: 578
Flags: W
LayerCount: 2
Fore
SplineSet
51 210 m 1,0,-1
 51 247 l 1,1,-1
 101 247 l 1,2,-1
 101 325 l 1,3,-1
 51 325 l 1,4,-1
 51 365 l 1,5,-1
 101 365 l 1,6,-1
 101 690 l 1,7,-1
 373 690 l 2,8,9
 517 690 517 690 517 546 c 2,10,-1
 517 469 l 2,11,12
 517 325 517 325 373 325 c 2,13,-1
 149 325 l 1,14,-1
 149 247 l 1,15,-1
 391 247 l 1,16,-1
 391 210 l 1,17,-1
 149 210 l 1,18,-1
 149 0 l 1,19,-1
 101 0 l 1,20,-1
 101 210 l 1,21,-1
 51 210 l 1,0,-1
149 365 m 1,22,-1
 378 365 l 2,23,24
 469 365 469 365 469 456 c 2,25,-1
 469 556 l 2,26,27
 469 646 469 646 378 646 c 2,28,-1
 149 646 l 1,29,-1
 149 365 l 1,22,-1
EndSplineSet
EndChar

StartChar: trademark
Encoding: 336 8482 336
Width: 775
Flags: W
LayerCount: 2
Fore
SplineSet
20 659 m 1,0,-1
 20 690 l 1,1,-1
 299 690 l 1,2,-1
 299 659 l 1,3,-1
 177 659 l 1,4,-1
 177 344 l 1,5,-1
 142 344 l 1,6,-1
 142 659 l 1,7,-1
 20 659 l 1,0,-1
360 344 m 1,8,-1
 360 690 l 1,9,-1
 410 690 l 1,10,-1
 535 424 l 1,11,-1
 660 690 l 1,12,-1
 710 690 l 1,13,-1
 710 344 l 1,14,-1
 675 344 l 1,15,-1
 675 646 l 1,16,-1
 555 389 l 1,17,-1
 515 389 l 1,18,-1
 395 646 l 1,19,-1
 395 344 l 1,20,-1
 360 344 l 1,8,-1
EndSplineSet
EndChar

StartChar: Omega
Encoding: 337 8486 337
Width: 695
Flags: W
LayerCount: 2
Fore
SplineSet
65 0 m 1,0,-1
 65 44 l 1,1,-1
 223 44 l 1,2,-1
 116 187 l 2,3,4
 85 228 85 228 85 281 c 2,5,-1
 85 546 l 2,6,7
 85 690 85 690 229 690 c 2,8,-1
 466 690 l 2,9,10
 610 690 610 690 610 546 c 2,11,-1
 610 281 l 2,12,13
 610 228 610 228 579 187 c 2,14,-1
 472 44 l 1,15,-1
 630 44 l 1,16,-1
 630 0 l 1,17,-1
 415 0 l 1,18,-1
 415 43 l 1,19,-1
 533 200 l 2,20,21
 562 240 562 240 562 287 c 2,22,-1
 562 556 l 2,23,24
 562 646 562 646 472 646 c 2,25,-1
 224 646 l 2,26,27
 133 646 133 646 133 556 c 2,28,-1
 133 287 l 2,29,30
 133 240 133 240 162 200 c 2,31,-1
 280 43 l 1,32,-1
 280 0 l 1,33,-1
 65 0 l 1,0,-1
EndSplineSet
EndChar

StartChar: estimated
Encoding: 338 8494 338
Width: 880
Flags: W
LayerCount: 2
Fore
SplineSet
60 345 m 128,-1,1
 60 494 60 494 171.5 599.5 c 128,-1,2
 283 705 283 705 440 705 c 128,-1,3
 597 705 597 705 708.5 599.5 c 128,-1,4
 820 494 820 494 820 325 c 1,5,-1
 200 325 l 1,6,-1
 200 127 l 1,7,8
 305 25 305 25 440 25 c 128,-1,9
 575 25 575 25 687 133 c 1,10,-1
 719 100 l 1,11,12
 597 -15 597 -15 440 -15 c 128,-1,13
 283 -15 283 -15 171.5 90.5 c 128,-1,0
 60 196 60 196 60 345 c 128,-1,1
200 365 m 1,14,-1
 680 365 l 1,15,-1
 680 563 l 1,16,17
 575 665 575 665 440 665 c 128,-1,18
 305 665 305 665 200 563 c 1,19,-1
 200 365 l 1,14,-1
EndSplineSet
EndChar

StartChar: partialdiff
Encoding: 339 8706 339
Width: 573
Flags: W
LayerCount: 2
Fore
SplineSet
77 143 m 2,0,-1
 77 305 l 2,1,2
 77 448 77 448 220 448 c 2,3,-1
 447 448 l 1,4,-1
 447 538 l 2,5,6
 447 700 447 700 285 700 c 2,7,-1
 121 700 l 1,8,-1
 121 719 l 1,9,-1
 149 740 l 1,10,-1
 288 740 l 2,11,12
 492 740 492 740 492 536 c 2,13,-1
 492 143 l 2,14,15
 492 0 492 0 350 0 c 2,16,-1
 220 0 l 2,17,18
 77 0 77 0 77 143 c 2,0,-1
122 133 m 2,19,20
 122 40 122 40 215 40 c 2,21,-1
 354 40 l 2,22,23
 447 40 447 40 447 133 c 2,24,-1
 447 408 l 1,25,-1
 215 408 l 2,26,27
 122 408 122 408 122 315 c 2,28,-1
 122 133 l 2,19,20
EndSplineSet
EndChar

StartChar: Delta
Encoding: 340 8710 340
Width: 618
Flags: W
LayerCount: 2
Fore
SplineSet
21 13 m 1,0,-1
 268 690 l 1,1,-1
 351 690 l 1,2,-1
 597 13 l 1,3,-1
 589 0 l 1,4,-1
 30 0 l 1,5,-1
 21 13 l 1,0,-1
84 44 m 1,6,-1
 535 44 l 1,7,-1
 321 646 l 1,8,-1
 298 646 l 1,9,-1
 84 44 l 1,6,-1
EndSplineSet
EndChar

StartChar: product
Encoding: 341 8719 341
Width: 695
Flags: W
LayerCount: 2
Fore
SplineSet
95 -100 m 1,0,-1
 95 690 l 1,1,-1
 600 690 l 1,2,-1
 600 -100 l 1,3,-1
 552 -100 l 1,4,-1
 552 646 l 1,5,-1
 143 646 l 1,6,-1
 143 -100 l 1,7,-1
 95 -100 l 1,0,-1
EndSplineSet
EndChar

StartChar: summation
Encoding: 342 8721 342
Width: 568
Flags: W
LayerCount: 2
Fore
SplineSet
50 -60 m 1,0,-1
 299 295 l 1,1,-1
 50 650 l 1,2,-1
 50 690 l 1,3,-1
 518 690 l 1,4,-1
 518 646 l 1,5,-1
 108 646 l 1,6,-1
 353 295 l 1,7,-1
 108 -56 l 1,8,-1
 518 -56 l 1,9,-1
 518 -100 l 1,10,-1
 50 -100 l 1,11,-1
 50 -60 l 1,0,-1
EndSplineSet
EndChar

StartChar: minus
Encoding: 343 8722 343
Width: 578
Flags: W
LayerCount: 2
Fore
SplineSet
66 314 m 1,0,-1
 66 356 l 1,1,-1
 512 356 l 1,2,-1
 512 314 l 1,3,-1
 66 314 l 1,0,-1
EndSplineSet
EndChar

StartChar: radical
Encoding: 346 8730 346
Width: 561
Flags: W
LayerCount: 2
Fore
SplineSet
20 356 m 1,0,-1
 20 400 l 1,1,-1
 148 400 l 1,2,-1
 267 46 l 1,3,-1
 523 786 l 1,4,-1
 561 772 l 1,5,-1
 288 -10 l 1,6,-1
 244 -10 l 1,7,-1
 118 356 l 1,8,-1
 20 356 l 1,0,-1
EndSplineSet
EndChar

StartChar: infinity
Encoding: 347 8734 347
Width: 608
Flags: W
LayerCount: 2
Fore
SplineSet
45 278 m 2,0,-1
 45 392 l 2,1,2
 45 479 45 479 132 479 c 2,3,-1
 232 479 l 2,4,5
 270 479 270 479 304 445 c 1,6,7
 338 479 338 479 376 479 c 2,8,-1
 476 479 l 2,9,10
 563 479 563 479 563 392 c 2,11,-1
 563 278 l 2,12,13
 563 191 563 191 476 191 c 2,14,-1
 376 191 l 2,15,16
 338 191 338 191 304 225 c 1,17,18
 270 191 270 191 232 191 c 2,19,-1
 132 191 l 2,20,21
 45 191 45 191 45 278 c 2,0,-1
82 269 m 2,22,23
 82 225 82 225 126 225 c 2,24,-1
 241 225 l 2,25,26
 285 225 285 225 285 269 c 2,27,-1
 285 401 l 2,28,29
 285 445 285 445 241 445 c 2,30,-1
 126 445 l 2,31,32
 82 445 82 445 82 401 c 2,33,-1
 82 269 l 2,22,23
323 269 m 2,34,35
 323 225 323 225 367 225 c 2,36,-1
 481 225 l 2,37,38
 525 225 525 225 525 269 c 2,39,-1
 525 401 l 2,40,41
 525 445 525 445 481 445 c 2,42,-1
 367 445 l 2,43,44
 323 445 323 445 323 401 c 2,45,-1
 323 269 l 2,34,35
EndSplineSet
EndChar

StartChar: integral
Encoding: 348 8747 348
Width: 385
Flags: W
LayerCount: 2
Fore
SplineSet
20 -160 m 1,0,-1
 77 -160 l 2,1,2
 170 -160 170 -160 170 -67 c 2,3,-1
 170 597 l 2,4,5
 170 740 170 740 313 740 c 2,6,-1
 337 740 l 1,7,-1
 365 719 l 1,8,-1
 365 700 l 1,9,-1
 308 700 l 2,10,11
 215 700 215 700 215 607 c 2,12,-1
 215 -57 l 2,13,14
 215 -200 215 -200 72 -200 c 2,15,-1
 48 -200 l 1,16,-1
 20 -179 l 1,17,-1
 20 -160 l 1,0,-1
EndSplineSet
EndChar

StartChar: notequal
Encoding: 350 8800 350
Width: 578
Flags: W
LayerCount: 2
Fore
SplineSet
66 204 m 1,0,-1
 66 246 l 1,1,-1
 222 246 l 1,2,-1
 313 424 l 1,3,-1
 66 424 l 1,4,-1
 66 466 l 1,5,-1
 334 466 l 1,6,-1
 401 598 l 1,7,-1
 435 581 l 1,8,-1
 377 466 l 1,9,-1
 512 466 l 1,10,-1
 512 424 l 1,11,-1
 356 424 l 1,12,-1
 265 246 l 1,13,-1
 512 246 l 1,14,-1
 512 204 l 1,15,-1
 244 204 l 1,16,-1
 177 72 l 1,17,-1
 143 89 l 1,18,-1
 201 204 l 1,19,-1
 66 204 l 1,0,-1
EndSplineSet
EndChar

StartChar: lessequal
Encoding: 351 8804 351
Width: 578
Flags: W
LayerCount: 2
Fore
SplineSet
66 0 m 1,0,-1
 66 41 l 1,1,-1
 512 41 l 1,2,-1
 512 0 l 1,3,-1
 66 0 l 1,0,-1
64 299 m 1,4,-1
 64 346 l 1,5,-1
 490 550 l 1,6,-1
 508 512 l 1,7,-1
 103 323 l 1,8,-1
 508 133 l 1,9,-1
 490 95 l 1,10,-1
 64 299 l 1,4,-1
EndSplineSet
EndChar

StartChar: greaterequal
Encoding: 352 8805 352
Width: 578
Flags: W
LayerCount: 2
Fore
SplineSet
66 0 m 1,0,-1
 66 41 l 1,1,-1
 512 41 l 1,2,-1
 512 0 l 1,3,-1
 66 0 l 1,0,-1
70 133 m 1,4,-1
 475 323 l 1,5,-1
 70 512 l 1,6,-1
 88 550 l 1,7,-1
 514 346 l 1,8,-1
 514 299 l 1,9,-1
 88 95 l 1,10,-1
 70 133 l 1,4,-1
EndSplineSet
EndChar

StartChar: lozenge
Encoding: 353 9674 353
Width: 578
Flags: W
LayerCount: 2
Fore
SplineSet
69 345 m 1,0,-1
 267 690 l 1,1,-1
 311 690 l 1,2,-1
 509 345 l 1,3,-1
 311 0 l 1,4,-1
 267 0 l 1,5,-1
 69 345 l 1,0,-1
113 345 m 1,6,-1
 289 38 l 1,7,-1
 465 345 l 1,8,-1
 289 652 l 1,9,-1
 113 345 l 1,6,-1
EndSplineSet
EndChar

StartChar: uniF000
Encoding: 354 61440 354
Width: 700
Flags: W
LayerCount: 2
Fore
SplineSet
50 605 m 1,0,-1
 650 605 l 1,1,-1
 350 85 l 1,2,-1
 50 605 l 1,0,-1
EndSplineSet
EndChar

StartChar: .notdef
Encoding: 357 -1 357
Width: 581
Flags: W
LayerCount: 2
Fore
SplineSet
100 0 m 1,0,-1
 100 740 l 1,1,-1
 482 740 l 1,2,-1
 482 0 l 1,3,-1
 100 0 l 1,0,-1
132 32 m 1,4,-1
 450 32 l 1,5,-1
 450 708 l 1,6,-1
 132 708 l 1,7,-1
 132 32 l 1,4,-1
EndSplineSet
EndChar

StartChar: uni030C.alt
Encoding: 358 -1 358
Width: 0
Flags: W
LayerCount: 2
Fore
SplineSet
-41 597 m 1,0,-1
 -8 755 l 1,1,-1
 35 755 l 1,2,-1
 41 745 l 1,3,-1
 -11 590 l 1,4,-1
 -41 597 l 1,0,-1
EndSplineSet
EndChar

StartChar: uni0326.alt
Encoding: 359 -1 359
Width: 0
Flags: W
LayerCount: 2
Fore
SplineSet
-21 599 m 1,0,-1
 35 736 l 1,1,-1
 69 726 l 1,2,-1
 36 589 l 1,3,-1
 -15 589 l 1,4,-1
 -21 599 l 1,0,-1
EndSplineSet
EndChar

StartChar: uni0300.cap
Encoding: 360 -1 360
Width: 0
Flags: W
LayerCount: 2
Fore
SplineSet
-423 866 m 1,0,-1
 -390 899 l 1,1,-1
 -266 762 l 1,2,-1
 -294 735 l 1,3,-1
 -423 866 l 1,0,-1
EndSplineSet
EndChar

StartChar: uni0301.cap
Encoding: 361 -1 361
Width: 0
Flags: W
LayerCount: 2
Fore
SplineSet
-362 762 m 1,0,-1
 -238 899 l 1,1,-1
 -205 866 l 1,2,-1
 -334 735 l 1,3,-1
 -362 762 l 1,0,-1
EndSplineSet
EndChar

StartChar: uni0302.cap
Encoding: 362 -1 362
Width: 0
Flags: W
LayerCount: 2
Fore
SplineSet
-441 776 m 1,0,-1
 -314 900 l 1,1,-1
 -187 776 l 1,2,-1
 -214 748 l 1,3,-1
 -314 843 l 1,4,-1
 -414 748 l 1,5,-1
 -441 776 l 1,0,-1
EndSplineSet
EndChar

StartChar: uni0303.cap
Encoding: 363 -1 363
Width: 0
Flags: W
LayerCount: 2
Fore
SplineSet
-456 795 m 1,0,-1
 -411 840 l 2,1,2
 -387 863 -387 863 -361 863 c 128,-1,3
 -335 863 -335 863 -313 840 c 2,4,-1
 -289 816 l 2,5,6
 -277 804 -277 804 -267 804 c 128,-1,7
 -257 804 -257 804 -245 816 c 2,8,-1
 -200 861 l 1,9,-1
 -173 834 l 1,10,-1
 -218 789 l 2,11,12
 -241 766 -241 766 -267 766 c 128,-1,13
 -293 766 -293 766 -316 789 c 2,14,-1
 -340 813 l 2,15,16
 -351 825 -351 825 -361 825 c 128,-1,17
 -371 825 -371 825 -384 813 c 2,18,-1
 -429 768 l 1,19,-1
 -456 795 l 1,0,-1
EndSplineSet
EndChar

StartChar: uni0304.cap
Encoding: 364 -1 364
Width: 0
Flags: W
LayerCount: 2
Fore
SplineSet
-434 794 m 1,0,-1
 -434 839 l 1,1,-1
 -194 839 l 1,2,-1
 -194 794 l 1,3,-1
 -434 794 l 1,0,-1
EndSplineSet
EndChar

StartChar: uni0306.cap
Encoding: 365 -1 365
Width: 0
Flags: W
LayerCount: 2
Fore
SplineSet
-431 828 m 2,0,-1
 -431 882 l 1,1,-1
 -392 882 l 1,2,-1
 -392 827 l 2,3,4
 -392 803 -392 803 -368 803 c 2,5,-1
 -259 803 l 2,6,7
 -235 803 -235 803 -235 827 c 2,8,-1
 -235 882 l 1,9,-1
 -196 882 l 1,10,-1
 -196 828 l 2,11,12
 -196 764 -196 764 -261 764 c 2,13,-1
 -367 764 l 2,14,15
 -431 764 -431 764 -431 828 c 2,0,-1
EndSplineSet
EndChar

StartChar: uni0307.cap
Encoding: 366 -1 366
Width: 0
Flags: W
LayerCount: 2
Fore
SplineSet
-342 783 m 1,0,-1
 -342 852 l 1,1,-1
 -287 852 l 1,2,-1
 -287 783 l 1,3,-1
 -342 783 l 1,0,-1
EndSplineSet
EndChar

StartChar: uni0308.cap
Encoding: 367 -1 367
Width: 0
Flags: W
LayerCount: 2
Fore
SplineSet
-425 785 m 1,0,-1
 -425 851 l 1,1,-1
 -370 851 l 1,2,-1
 -370 785 l 1,3,-1
 -425 785 l 1,0,-1
-258 785 m 1,4,-1
 -258 851 l 1,5,-1
 -203 851 l 1,6,-1
 -203 785 l 1,7,-1
 -258 785 l 1,4,-1
EndSplineSet
EndChar

StartChar: uni030A.cap
Encoding: 368 -1 368
Width: 0
Flags: W
LayerCount: 2
Fore
SplineSet
-407 801 m 2,0,-1
 -407 858 l 2,1,2
 -407 921 -407 921 -344 921 c 2,3,-1
 -283 921 l 2,4,5
 -220 921 -220 921 -220 858 c 2,6,-1
 -220 801 l 2,7,8
 -220 738 -220 738 -283 738 c 2,9,-1
 -344 738 l 2,10,11
 -407 738 -407 738 -407 801 c 2,0,-1
-371 798 m 2,12,13
 -371 771 -371 771 -344 771 c 2,14,-1
 -284 771 l 2,15,16
 -256 771 -256 771 -256 798 c 2,17,-1
 -256 861 l 2,18,19
 -256 888 -256 888 -284 888 c 2,20,-1
 -344 888 l 2,21,22
 -371 888 -371 888 -371 861 c 2,23,-1
 -371 798 l 2,12,13
EndSplineSet
EndChar

StartChar: uni030B.cap
Encoding: 369 -1 369
Width: 0
Flags: W
LayerCount: 2
Fore
SplineSet
-420 761 m 1,0,-1
 -311 900 l 1,1,-1
 -273 867 l 1,2,-1
 -392 734 l 1,3,-1
 -420 761 l 1,0,-1
-267 761 m 1,4,-1
 -158 900 l 1,5,-1
 -120 867 l 1,6,-1
 -239 734 l 1,7,-1
 -267 761 l 1,4,-1
EndSplineSet
EndChar

StartChar: uni030C.cap
Encoding: 370 -1 370
Width: 0
Flags: W
LayerCount: 2
Fore
SplineSet
-441 862 m 1,0,-1
 -414 890 l 1,1,-1
 -314 795 l 1,2,-1
 -214 890 l 1,3,-1
 -187 862 l 1,4,-1
 -314 738 l 1,5,-1
 -441 862 l 1,0,-1
EndSplineSet
EndChar

StartChar: zero.zero
Encoding: 371 -1 371
Width: 578
Flags: W
LayerCount: 2
Fore
SplineSet
71 144 m 2,0,-1
 71 546 l 2,1,2
 71 690 71 690 215 690 c 2,3,-1
 363 690 l 2,4,5
 507 690 507 690 507 546 c 2,6,-1
 507 144 l 2,7,8
 507 0 507 0 363 0 c 2,9,-1
 215 0 l 2,10,11
 71 0 71 0 71 144 c 2,0,-1
119 134 m 2,12,13
 119 44 119 44 210 44 c 2,14,-1
 368 44 l 2,15,16
 459 44 459 44 459 134 c 2,17,-1
 459 556 l 2,18,19
 459 646 459 646 368 646 c 2,20,-1
 210 646 l 2,21,22
 119 646 119 646 119 556 c 2,23,-1
 119 134 l 2,12,13
253 290 m 1,24,-1
 253 400 l 1,25,-1
 325 400 l 1,26,-1
 325 290 l 1,27,-1
 253 290 l 1,24,-1
EndSplineSet
EndChar

